<svg width="206" height="206" viewBox="0 0 206 206" fill="none" xmlns="http://www.w3.org/2000/svg">
<circle cx="103" cy="103" r="103" fill="#27B2C7"/>
<path d="M157.319 44C157.471 49.4898 157.627 54.0103 157.703 58.5307C157.789 63.4058 158.026 68.2903 157.765 73.1513C157.518 77.7757 158.884 81.6957 161.276 85.5589C164.853 91.3324 167.614 97.4322 168.615 104.303C169.482 110.394 168.88 116.604 166.86 122.418C161.518 138.405 150.326 148.836 134.93 154.931C128.632 157.371 122.164 159.351 115.578 160.856C107.987 162.643 100.183 161.976 92.478 161.267C84.2371 160.506 76.4516 157.957 69.0173 154.439C58.7742 149.573 51.0646 141.942 44.7642 132.598C36.5612 120.432 36.6561 107.466 40.6176 94.1979C41.7562 90.4151 44.1853 86.8545 46.5338 83.5493C48.7861 80.5003 49.9743 76.7999 49.9166 73.0141C49.8501 64.9757 49.8928 56.975 49.8881 48.9555V44.2648C55.3962 47.0168 60.2971 49.4 65.1411 51.8966C68.9365 53.8448 72.732 55.774 76.3282 58.0437C79.0989 59.7743 81.7605 59.8594 84.8681 59.3251C90.9171 58.2943 97.0468 57.1263 103.138 57.1405C109.7 57.1405 116.285 58.2943 122.804 59.3062C125.461 59.7176 127.596 59.4953 129.987 58.2044C138.735 53.5185 147.545 49.05 157.319 44ZM101.976 125.146C98.7975 131.005 92.9382 132.948 91.1685 139.105C96.9899 138.386 100.183 134.995 103.423 131.738C107.067 134.518 109.543 138.948 115.602 138.291C113.59 132.764 106.943 131.052 105.776 125.572C111.944 118.592 111.944 118.592 111.194 115.434C107.209 115.434 103.129 115.32 99.0678 115.5C97.8011 115.557 95.6329 116.237 95.5191 116.918C95.4463 117.657 95.5217 118.403 95.7408 119.112C95.9599 119.822 96.3184 120.481 96.7954 121.051C98.2187 122.649 100.188 123.779 101.976 125.146ZM75.4837 112.672C80.4321 112.672 84.1374 109.249 84.1469 104.695C84.1469 100.312 80.4748 96.4723 76.1954 96.3919C71.2186 96.2973 67.0816 99.7018 67.1005 103.882C67.1195 109.102 70.5307 112.677 75.4837 112.672ZM131.989 112.559C136.477 112.606 139.665 109.211 139.698 104.355C139.698 100.146 135.585 95.9521 131.211 95.7488C127.785 95.5928 123.207 99.9619 123.098 103.499C122.913 109.23 126.12 112.497 131.989 112.559Z" fill="black"/>
<path d="M101.616 124.878C99.859 123.495 97.9251 122.35 96.527 120.723C96.0585 120.146 95.7063 119.479 95.4911 118.76C95.2759 118.042 95.2019 117.287 95.2734 116.539C95.3852 115.859 97.5149 115.17 98.7592 115.103C102.753 114.921 106.756 115.036 110.671 115.036C111.407 118.234 111.407 118.234 105.349 125.299C106.495 130.848 113.024 132.581 115 138.177C109.049 138.842 106.612 134.347 103.037 131.542C99.8497 134.84 96.7181 138.272 91 139C92.7383 132.786 98.4936 130.809 101.616 124.878Z" fill="white"/>
<path d="M75.3604 113C70.4208 113 67.0189 109.272 67 103.822C67 99.4573 71.1068 95.9223 76.0701 96.0013C80.3284 96.0852 84.0047 100.094 84 104.671C83.9905 109.425 80.2953 112.995 75.3604 113Z" fill="white"/>
<path d="M131.573 112.999C125.919 112.937 122.829 109.653 123.007 103.839C123.112 100.264 127.523 95.8463 130.823 96.0041C135.037 96.2097 139.023 100.45 139 104.705C138.986 109.614 135.896 113.066 131.573 112.999Z" fill="white"/>
</svg>
