<svg width="206" height="206" viewBox="0 0 206 206" fill="none" xmlns="http://www.w3.org/2000/svg">
<circle cx="103" cy="103" r="103" fill="#27B2C7"/>
<path d="M53.6062 149.284C52.9576 147.841 52.5544 146.732 51.9828 145.719C49.9489 142.114 47.7429 138.604 45.83 134.94C44.7086 132.781 43.4445 131.47 40.7877 131.613C38.9994 131.709 37.1781 131.18 35.3678 130.938C32.0697 130.49 31.751 130.057 32.1211 125.956H41.8797C42.5027 122.846 42.1069 120.082 41.8248 117.357C40.9709 109.101 41.9017 101.038 44.1847 93.1081C45.339 89.1063 46.7755 85.2147 49.5532 82.0022C51.7739 79.4323 51.4441 76.3336 51.4624 73.2937C51.4881 68.7816 51.3013 64.2511 51.6494 59.7647C52.1331 53.5454 53.28 47.4436 56.5158 41.9219C58.5716 38.4047 59.2496 38.2138 62.7455 40.5414C70.508 45.6463 77.2863 52.1138 82.7539 59.6326C84.5862 62.1805 86.5211 63.0543 89.7165 62.9368C98.735 62.6247 107.772 62.7569 116.797 62.9037C118.941 62.9405 120.341 62.5366 121.679 60.7009C127.274 52.9213 134.208 46.4523 141.988 40.8755C142.583 40.4583 143.224 40.1086 143.897 39.8329C146.594 38.7315 147.972 39.1206 149.188 41.8374C151.794 47.6529 153.827 53.6776 154.018 60.1172C154.176 65.3636 154.113 70.6173 153.974 75.8637C153.896 77.9411 154.51 79.9855 155.718 81.6755C161.072 89.4551 163.414 98.237 163.744 107.518C163.934 112.981 163.333 118.474 163.099 123.951C163.081 124.418 163.158 124.887 163.22 125.835C165.459 125.732 167.617 125.497 169.75 125.585C170.996 125.636 172.597 125.831 173.37 126.617C174.836 128.085 173.587 130.402 171.227 130.743C167.98 131.213 164.711 131.518 161.461 131.892C158.295 137.532 155.147 143.134 151.753 149.17C153.432 149.772 154.854 150.29 156.279 150.796C157.423 151.208 158.621 151.505 159.702 152.041C161.387 152.871 161.901 154.126 161.281 155.598C160.662 157.071 159.467 157.526 157.983 157.096C155.052 156.248 152.12 155.459 149.28 154.391C147.231 153.62 145.513 153.803 143.831 155.125C132.837 163.661 119.978 166.275 106.5 166.906C96.8073 167.362 87.2686 166.139 77.9167 163.657C72.4785 162.211 67.3262 159.835 63.0204 156.138C60.7007 154.148 58.4288 153.638 55.6584 154.537C52.9979 155.404 50.3667 156.373 47.6549 157.045C46.7351 157.269 45.273 157.016 44.6904 156.391C44.1077 155.767 43.9025 154.233 44.2543 153.407C44.6061 152.581 45.7677 151.938 46.7132 151.571C48.8423 150.716 51.041 150.117 53.6062 149.284ZM99.2479 160.276C99.8965 157.93 100.347 147.543 99.7427 145.877C99.4385 145.054 98.6726 144.346 97.9873 143.733C95.5541 141.53 92.8974 139.58 90.6253 137.238C85.6379 132.098 88.2105 123.878 93.9968 120.383C97.6173 118.198 101.465 118.422 105.357 118.492C112.92 118.631 118.036 124.796 116.904 132.252C116.452 135.182 114.937 137.842 112.649 139.723C110.538 141.537 108.252 143.134 105.84 144.966V160.83C116.834 161.594 126.589 158.561 135.915 153.774C136.56 153.44 137.297 152.492 137.267 151.865C137.242 151.307 136.3 150.565 135.607 150.304C133.566 149.533 131.412 149.056 129.378 148.281C127.912 147.723 126.981 146.703 127.502 144.86C128.062 142.877 129.473 142.888 130.968 143.27C133.442 143.901 135.853 144.779 138.338 145.355C145.619 147.048 144.523 147.848 149.804 141.177C151.555 138.975 153.014 136.427 153.314 133.343C146.773 133.857 140.489 134.363 134.182 134.833C133.229 134.903 132.152 135.068 131.335 134.716C130.602 134.4 129.763 133.471 129.686 132.741C129.609 132.01 130.217 130.931 130.847 130.38C131.477 129.829 132.427 129.774 133.266 129.646C139.184 128.853 145.099 128.045 151.031 127.358C156.334 126.742 156.407 126.822 157.551 121.536C158.569 116.767 158.693 111.851 157.917 107.037C157.419 107.206 157.133 107.221 156.986 107.368C156.652 107.716 156.353 108.096 156.092 108.502C152.23 114.439 146.828 118.228 139.862 119.303C135.768 119.9 131.626 120.092 127.494 119.876C119.135 119.509 112.349 115.702 107.006 109.332C105.269 107.265 105.075 105.723 106.863 103.784C109.047 101.341 111.507 99.1589 114.192 97.2824C118.589 94.316 123.621 92.9906 128.971 92.5097C139.737 91.5625 148.65 94.7455 155.389 103.414C155.985 104.075 156.632 104.689 157.323 105.249L158.122 104.838C157.547 102.268 157.133 99.6799 156.356 97.187C155.352 93.9525 154.476 90.5785 152.809 87.6671C147.748 78.8889 139.32 74.4796 130.07 71.6086C118.773 68.0987 107.083 67.236 95.349 68.04C85.3631 68.7265 75.6593 70.7164 66.465 75.1478C54.3537 80.9852 49.5459 91.3385 47.5304 103.7C47.4974 103.891 47.721 104.126 47.8272 104.342C48.0581 104.409 48.3733 104.599 48.4979 104.515C49.0911 104.151 49.6324 103.707 50.1066 103.197C57.1535 94.6868 66.2635 91.6432 77.0921 92.528C82.0026 92.9282 86.3415 94.819 90.4935 97.0108C93.4434 98.5638 96.0489 100.98 98.3942 103.41C100.74 105.84 100.318 107.816 97.9397 110.018C97.0419 110.844 96.1955 111.729 95.2647 112.515C90.4055 116.616 84.9636 119.491 78.503 119.858C75.336 120.045 72.1607 120.045 68.9937 119.858C64.6842 119.608 60.4699 118.701 57.0473 115.885C54.4344 113.738 52.1 111.245 49.6302 108.91C49.0182 108.337 48.3586 107.808 47.2226 106.832C46.8047 112.32 47.0804 117.839 48.0434 123.257C48.4941 125.769 50.0919 127.002 52.5544 127.296C56.5488 127.751 60.5432 128.206 64.5302 128.724C67.4215 129.091 70.3385 129.411 73.1785 130.049C76.0186 130.688 75.9965 130.875 75.6081 134.422C67.7806 135.259 60.0007 133.321 51.6016 133.262C52.2429 134.888 52.5765 136.166 53.2177 137.267C54.3867 139.268 55.783 141.126 56.9923 143.105C58.8649 146.181 61.3897 147.004 64.7904 145.855C67.7843 144.838 70.8406 144.019 73.9041 143.222C74.7653 143.002 76.0148 142.877 76.5938 143.336C77.3267 143.924 78.0304 145.172 77.9351 146.071C77.8435 146.897 76.8357 147.977 75.9892 148.303C73.2481 149.364 70.3935 150.139 67.5828 151.009L67.6121 151.99C77.0593 158.888 87.6423 161.454 99.2406 160.276H99.2479ZM111.656 106.505C113.342 108.888 115.368 110.833 118.036 111.839C121.55 113.161 125.094 114.843 128.751 115.246C136.542 116.113 143.75 114.27 149.441 108.37C150.87 106.901 150.878 105.822 149.525 104.262C149.119 103.806 148.661 103.4 148.159 103.054C140.06 97.3412 131.39 95.7919 121.946 99.3237C117.893 100.84 114.229 102.793 111.649 106.505H111.656ZM93.3628 106.586C93.1483 106.102 92.8933 105.638 92.6006 105.198C90.0354 102.066 86.576 100.458 82.8455 99.1108C74.7396 96.1737 66.9195 96.963 59.7334 101.332C54.0497 104.783 52.9758 107.327 59.3961 111.285C68.2826 116.763 77.5795 116.62 86.8801 112.137C89.4196 110.918 91.82 109.504 93.3555 106.586H93.3628ZM147.631 72.7063C147.857 72.1427 148.056 71.568 148.225 70.9844C149.405 65.4774 148.529 60.1062 147.327 54.746C146.894 52.7329 146.355 50.744 145.714 48.7873C145.245 47.3849 144.16 46.9847 142.816 47.774C141.966 48.2445 141.15 48.7719 140.371 49.3527C135.661 53.0022 131.488 57.2984 127.974 62.1144C127.527 62.7385 127.318 63.5316 126.992 64.2548L147.631 72.7063ZM57.432 72.8275L78.4554 64.2071C73.8125 56.8864 68.0774 51.3096 60.7776 46.5625C57.1204 55.1315 55.7133 63.5242 57.4246 72.8275H57.432Z" fill="black"/>
<path d="M99.0408 159.308C87.4827 160.472 76.9217 157.938 67.5073 151.156L67.478 150.189C70.279 149.322 73.1238 148.565 75.8553 147.517C76.6989 147.195 77.7032 146.129 77.7945 145.313C77.8894 144.44 77.2028 143.193 76.4579 142.613C75.8809 142.16 74.632 142.283 73.7775 142.501C70.7245 143.276 67.6788 144.096 64.6953 145.1C61.31 146.234 58.7903 145.422 56.9242 142.385C55.7264 140.431 54.3277 138.597 53.1627 136.621C52.5237 135.534 52.1915 134.273 51.5524 132.667C59.9224 132.732 67.6752 134.639 75.4755 133.812C75.8626 130.311 75.8846 130.126 73.0544 129.495C70.2242 128.865 67.3173 128.557 64.436 128.187C60.4628 127.676 56.4822 127.226 52.5017 126.777C50.0477 126.498 48.4555 125.28 48.0063 122.79C47.0467 117.44 46.7719 111.991 47.1884 106.573C48.3204 107.541 48.9777 108.059 49.5876 108.625C52.0489 110.923 54.3752 113.384 56.979 115.511C60.3898 118.292 64.5895 119.187 68.884 119.433C72.0401 119.618 75.2044 119.618 78.3605 119.433C84.7987 119.049 90.2217 116.218 95.0641 112.184C95.9917 111.408 96.8352 110.535 97.7299 109.719C100.1 107.544 100.472 105.547 98.1828 103.195C95.8931 100.842 93.2491 98.4103 90.3094 96.8771C86.1718 94.7023 81.8479 92.8464 76.9545 92.4514C66.1633 91.5778 57.0849 94.5827 50.0624 102.985C49.5897 103.488 49.0504 103.926 48.4592 104.286C48.335 104.369 48.0209 104.181 47.7909 104.116C47.685 103.902 47.4622 103.67 47.4951 103.481C49.5036 91.277 54.2948 81.0554 66.3641 75.2922C75.5266 70.9173 85.1968 68.9527 95.1481 68.2749C106.834 67.4811 118.491 68.3329 129.749 71.798C138.967 74.6325 147.366 78.9857 152.409 87.6523C154.071 90.5122 154.943 93.8577 155.944 97.0511C156.718 99.5122 157.131 102.082 157.704 104.605L156.908 105.011C156.219 104.457 155.574 103.852 154.98 103.198C148.264 94.6407 139.383 91.4981 128.654 92.4332C123.322 92.8972 118.319 94.2057 113.926 97.1453C111.25 98.9979 108.799 101.152 106.622 103.565C104.84 105.478 105.034 107.001 106.765 109.041C112.089 115.33 118.852 119.074 127.182 119.451C131.299 119.664 135.427 119.475 139.507 118.886C146.445 117.824 151.832 114.083 155.681 108.222C155.941 107.821 156.239 107.446 156.572 107.102C156.718 106.957 157.003 106.943 157.5 106.776C158.273 111.528 158.149 116.382 157.134 121.09C155.995 126.309 155.922 126.23 150.638 126.839C144.725 127.516 138.831 128.314 132.934 129.097C132.097 129.209 131.108 129.311 130.524 129.822C129.939 130.333 129.289 131.402 129.366 132.152C129.442 132.903 130.279 133.791 131.009 134.102C131.823 134.465 132.897 134.287 133.847 134.218C140.124 133.754 146.394 133.254 152.913 132.747C152.613 135.791 151.16 138.3 149.415 140.482C144.152 147.068 145.244 146.281 137.988 144.607C135.512 144.038 133.109 143.157 130.644 142.548C129.154 142.185 127.748 142.16 127.189 144.117C126.671 145.93 127.587 146.944 129.059 147.495C131.097 148.26 133.244 148.731 135.267 149.493C135.957 149.75 136.896 150.482 136.921 151.033C136.951 151.653 136.217 152.588 135.574 152.918C126.28 157.63 116.559 160.638 105.603 159.885V144.204C107.992 142.392 110.285 140.819 112.388 139.028C114.668 137.171 116.178 134.545 116.628 131.652C117.757 124.29 112.659 118.205 105.121 118.067C101.254 117.998 97.4196 117.777 93.8006 119.934C88.0343 123.384 85.4706 131.5 90.4408 136.574C92.7049 138.887 95.3525 140.826 97.7773 142.986C98.4602 143.592 99.2381 144.291 99.5266 145.103C100.147 146.742 99.6872 156.992 99.0408 159.308Z" fill="white"/>
<path d="M111 106.558C113.64 103.053 117.411 101.209 121.589 99.7769C131.307 96.4417 140.229 97.9048 148.563 103.299C149.08 103.627 149.552 104.01 149.97 104.44C151.361 105.913 151.354 106.919 149.883 108.319C144.038 113.891 136.609 115.631 128.577 114.806C124.806 114.425 121.167 112.837 117.55 111.589C114.82 110.646 112.738 108.808 111 106.558ZM129.331 112.379C130.485 110.497 130.934 106.485 130.285 103.639C130.138 103.001 129.531 102.45 129.022 101.646C126.65 106.173 126.744 109.436 129.331 112.379Z" fill="white"/>
<path d="M93 106.173C91.4784 109.079 89.0996 110.486 86.5829 111.7C77.3587 116.164 68.1455 116.306 59.3462 110.852C52.9837 106.911 54.0479 104.378 59.6805 100.942C66.802 96.5914 74.5516 95.8237 82.5846 98.7299C86.2816 100.072 89.7098 101.673 92.2519 104.791C92.5394 105.23 92.7897 105.692 93 106.173ZM74.0033 111.766C76.6071 108.11 76.2438 102.239 73.502 100.408C72.536 104.137 71.4503 107.8 74.0033 111.766Z" fill="white"/>
<path d="M146.889 73L127 64.3307C127.314 63.5769 127.516 62.7741 127.947 62.1333C131.334 57.1888 135.357 52.7782 139.898 49.0314C140.648 48.4351 141.435 47.8936 142.254 47.4106C143.551 46.6002 144.596 47.0111 145.049 48.4509C145.664 50.4636 146.181 52.5093 146.596 54.5797C147.754 60.0828 148.599 65.6123 147.461 71.2511C147.298 71.8438 147.107 72.4275 146.889 73Z" fill="white"/>
<path d="M57.6983 73C56.0463 63.4431 57.4047 54.8215 60.9351 46C67.9818 50.8765 73.518 56.6016 78 64.1446L57.6983 73Z" fill="white"/>
<path d="M129.85 113C127.477 109.71 127.391 106.067 129.567 101C130.049 101.898 130.6 102.514 130.721 103.226C131.323 106.419 130.914 110.902 129.85 113Z" fill="black"/>
<path d="M73.8817 112C70.8344 108.159 72.1402 104.611 73.2808 101C76.5676 102.774 77.0031 108.449 73.8817 112Z" fill="black"/>
</svg>
