<svg width="206" height="206" viewBox="0 0 206 206" fill="none" xmlns="http://www.w3.org/2000/svg">
<path d="M118.116 90.779C120.582 86.6265 123.767 83.3357 128.493 81.8416C124.622 84.3066 121.128 87.3167 118.116 90.779Z" fill="#FAFAF9"/>
<path d="M142.644 78.9564C138.812 78.0008 134.882 77.4233 130.89 78.2689C134.912 76.7243 138.847 77.2055 142.644 78.9564Z" fill="#27B2C7"/>
<path d="M55.5403 90.756C57.2819 87.5798 59.4498 85.3729 62.5298 84.1102L55.5403 90.756Z" fill="#FAFAF9"/>
<circle cx="103" cy="103" r="103" fill="#27B2C7"/>
<path d="M43.3831 90.0251C44.0981 73.0669 44.8062 56.2095 45.5212 39.2879L48.7914 38C50.5052 39.0632 51.9718 40.4806 53.0929 42.157C54.5939 44.3639 55.9689 46.6533 57.4012 48.9037C58.1781 50.1274 58.932 51.3672 59.7478 52.5703C62.5299 56.654 66.4326 58.7257 71.3482 58.8174C81.5781 59.0122 91.8058 59.152 102.036 59.3215C108.223 59.4247 114.411 59.6699 120.598 59.5942C124.177 59.5765 127.748 59.2483 131.27 58.6134C136.417 57.6486 140.474 54.5916 143.794 50.6728C146.106 47.9458 148.119 44.962 150.261 42.0906C150.887 41.2519 151.508 40.4085 152.062 39.6592C153.577 39.8219 153.525 40.8783 153.69 41.7216C154.505 45.9138 155.306 50.1091 156.091 54.3074C157.902 63.9797 159.706 73.6535 161.504 83.3289C162.02 86.0972 162.535 88.8678 163.076 91.7599C163.745 91.8034 164.366 91.7347 164.91 91.9134C165.34 92.0555 165.904 92.4497 165.987 92.8301C166.069 93.2105 165.757 93.8476 165.432 94.1501C165.008 94.5351 164.38 94.6978 163.727 95.0095C164.185 98.1674 164.756 101.307 165.116 104.469C166.351 115.385 166.514 126.24 163.188 136.901C158.475 152.026 148.398 161.623 133.324 166.124C125.555 168.445 117.596 169.046 109.541 168.53C97.4891 167.76 85.5748 166.048 73.9057 162.868C65.5617 160.594 58.1574 156.726 52.5933 149.846C49.385 145.875 47.2514 141.367 45.7412 136.527C43.3763 128.935 42.7438 121.127 42.785 113.24C42.8148 107.51 42.934 101.781 43.0692 96.0522C43.099 94.8605 43.115 93.772 41.9669 93.0524C41.8535 92.9498 41.7603 92.827 41.6919 92.6903C40.4682 90.9441 40.7706 90.2909 43.3831 90.0251ZM150.174 117.415C152.179 116.931 153.25 115.458 154.283 113.641C152.826 115.016 151.522 116.232 150.222 117.458C150.11 117.523 149.993 117.582 149.89 117.651C149.876 117.651 149.89 117.72 149.904 117.754C150.009 117.642 150.087 117.527 150.176 117.415H150.174ZM45.3952 94.8628C45.2531 97.4271 45.001 99.8517 45.0102 102.272C45.0354 108.688 45.0996 115.105 45.2898 121.503C45.475 126.698 46.4074 131.839 48.0581 136.768C51.2664 146.576 57.5181 153.646 66.9688 157.941C72.2213 160.328 77.7396 161.788 83.3473 162.838C89.9381 164.073 96.5885 165.052 103.25 165.838C112.243 166.899 121.228 166.848 130.102 164.664C138.191 162.675 145.387 159.075 151.297 153.091C157.051 147.268 160.358 140.166 162.182 132.295C163.887 124.936 164.192 117.481 163.445 109.99C163.021 105.741 162.412 101.511 161.816 97.2805C161.733 96.6892 161.406 95.8688 160.947 95.6419C159.783 95.0667 159.616 94.0928 159.343 92.7774C161.27 92.5116 160.739 91.2328 160.489 89.9839C159.572 85.2745 158.697 80.556 157.817 75.8375C156.811 70.4452 155.835 65.0484 154.819 59.6561C153.866 54.6145 152.881 49.5568 151.84 44.2104C151.514 44.487 151.207 44.7864 150.924 45.1064C149.656 46.8229 148.483 48.6149 147.142 50.2695C143.476 54.7818 139.309 58.6318 133.583 60.3528C130.042 61.4207 126.385 61.6728 122.72 61.6728C114.317 61.6728 105.919 61.6201 97.5234 61.5147C88.8977 61.4092 80.2696 61.3107 71.6484 61.038C65.5572 60.8455 60.566 58.4553 57.3897 52.9737C56.4731 51.3924 55.5816 49.7928 54.5916 48.2574C53.3541 46.3416 52.096 44.4258 50.6958 42.62C49.9579 41.6643 49.0916 40.7156 47.6433 40.0212C46.9192 57.3965 46.211 74.4235 45.4983 91.5124L49.1443 92.4084C49.3417 92.1984 49.5161 91.9679 49.6646 91.7209C52.4145 84.9491 57.5364 80.7852 64.3838 78.7204C68.9671 77.3454 73.7177 77.2743 78.4454 77.9343C87.9764 79.2635 95.752 86.4135 97.1866 95.988C97.3218 96.6419 97.494 97.2877 97.7022 97.9221C102.132 96.4097 106.388 96.4738 110.645 97.7915C112.229 89.3949 116.496 83.0974 123.557 78.686C132.414 73.154 143.389 74.1256 150.516 81.2595C157.317 88.068 160.335 96.4555 159.898 105.975C159.611 112.185 156.919 117.264 151.419 120.582C147.449 122.97 143.123 124.336 138.64 125.383C132.418 126.838 126.756 125.204 121.577 122.051C114.223 117.578 110.93 110.593 110.407 102.148C110.366 101.481 110.32 100.814 110.276 100.159C105.922 98.5867 101.777 98.6921 97.5395 100.505C97.3722 102.178 97.1362 103.837 97.0491 105.503C96.7076 111.938 93.7078 116.636 87.9581 119.539C86.4639 120.296 84.8987 120.914 83.3748 121.588C73.2388 126.061 61.093 123.481 53.8881 115.162C49.1627 109.713 46.8848 103.438 48.2758 96.1278C48.3041 95.7884 48.3041 95.4473 48.2758 95.108L45.3952 94.8628ZM135.572 118.588C138.637 118.631 141.665 117.911 144.383 116.494C153.575 111.697 157.356 100.328 151.258 91.4161C148.719 87.7037 145.359 85.1599 141.305 83.3083C137.868 81.7339 134.554 81.821 131.167 83.3564C125.187 86.014 120.3 90.6436 117.323 96.4715C114.31 102.242 115.245 107.549 119.929 112.091C124.26 116.287 129.483 118.536 135.572 118.588ZM91.572 100.452C92.0051 97.7961 90.7997 95.0072 89.2804 92.3328C86.732 87.8251 82.7858 85.0224 78.0742 83.0401C74.9461 81.7225 72.0036 81.9287 69.0084 83.2166C63.1395 85.7374 58.7074 89.8624 55.4029 95.3028C53.6956 98.1101 52.9691 101.011 53.8972 104.24C54.2547 105.482 54.5641 106.74 54.8643 107.999C55.1829 109.335 55.8659 110.556 56.8374 111.528C60.7012 115.495 65.3303 117.855 70.8669 118.43C76.1996 118.987 81.0052 117.701 85.1371 114.266C89.2689 110.831 91.6568 106.53 91.572 100.452ZM118.125 90.7791C121.137 87.3168 124.632 84.3067 128.502 81.8416C123.767 83.3404 120.582 86.6266 118.116 90.7791H118.125ZM142.646 78.9564C138.849 77.2056 134.914 76.7243 130.892 78.2689C134.884 77.4233 138.812 78.0008 142.644 78.9564H142.646ZM55.5404 90.7561L62.5299 84.1103C59.4499 85.373 57.282 87.5799 55.5404 90.7561ZM88.3797 114.507C90.291 113.402 90.291 113.402 90.4422 111.858L88.3797 114.507Z" fill="#070707"/>
<path d="M45.3951 94.8628L48.2826 95.108C48.3109 95.4474 48.3109 95.7885 48.2826 96.1278C46.887 103.438 49.1695 109.713 53.8949 115.162C61.093 123.481 73.2387 126.061 83.3678 121.597C84.9032 120.921 86.4684 120.305 87.9511 119.548C93.7009 116.645 96.7007 111.947 97.0421 105.512C97.1292 103.846 97.3652 102.187 97.5325 100.514C101.77 98.7013 105.906 98.5959 110.27 100.168C110.313 100.823 110.359 101.49 110.4 102.157C110.923 110.59 114.216 117.587 121.57 122.06C126.749 125.213 132.411 126.847 138.633 125.392C143.116 124.345 147.442 122.979 151.412 120.591C156.928 117.273 159.609 112.195 159.891 105.984C160.328 96.4647 157.31 88.0772 150.509 81.2687C143.382 74.1348 132.405 73.1631 123.55 78.6952C116.505 83.1112 112.238 89.4041 110.655 97.8007C106.397 96.483 102.141 96.4257 97.7113 97.9313C97.5031 97.2969 97.3309 96.6511 97.1957 95.9972C95.7611 86.4158 87.9855 79.2681 78.4545 77.9435C73.7268 77.2835 68.9808 77.3454 64.3929 78.7296C57.5455 80.7921 52.4282 84.9583 49.6736 91.7301C49.5252 91.9771 49.3508 92.2076 49.1535 92.4176L45.5097 91.5239C46.2224 74.435 46.9305 57.408 47.6547 40.0327C49.1007 40.7202 49.9693 41.6758 50.7072 42.6314C52.0982 44.4373 53.3563 46.3531 54.603 48.2689C55.593 49.8043 56.4867 51.4039 57.4011 52.9851C60.5773 58.4668 65.5686 60.857 71.6598 61.0495C80.281 61.3222 88.909 61.4207 97.5348 61.5261C105.938 61.63 114.336 61.6827 122.732 61.6842C126.398 61.6842 130.053 61.4322 133.594 60.3643C139.323 58.6318 143.499 54.7818 147.154 50.281C148.494 48.6264 149.675 46.8435 150.935 45.1179C151.219 44.7979 151.525 44.4984 151.852 44.2218C152.881 49.5683 153.866 54.6145 154.831 59.6676C155.846 65.0599 156.822 70.4567 157.828 75.849C158.708 80.5675 159.586 85.286 160.5 89.9953C160.743 91.2443 161.275 92.5161 159.354 92.7889C159.634 94.1043 159.813 95.0805 160.959 95.6534C161.417 95.8826 161.745 96.7007 161.827 97.292C162.423 101.522 163.033 105.753 163.457 110.001C164.204 117.493 163.899 124.948 162.194 132.306C160.361 140.178 157.063 147.28 151.308 153.103C145.398 159.086 138.203 162.687 130.113 164.676C121.228 166.848 112.243 166.899 103.259 165.84C96.5975 165.054 89.9472 164.075 83.3564 162.84C77.751 161.791 72.2304 160.319 66.9779 157.943C57.5271 153.648 51.2732 146.579 48.0672 136.77C46.41 131.841 45.4715 126.7 45.2806 121.503C45.0903 115.087 45.0262 108.684 45.001 102.272C45.001 99.8517 45.2531 97.4272 45.3951 94.8628ZM103.603 148.35C104.006 149.074 104.213 149.48 104.451 149.865C106.619 153.341 109.532 155.906 113.469 157.219C114.275 157.489 115.027 157.599 115.32 156.6C115.55 155.784 115.055 155.326 114.307 155.092C110.366 153.866 107.593 151.311 105.796 147.633C105.646 147.283 105.422 146.97 105.139 146.716C104.405 146.141 104.405 145.483 104.68 144.676C104.868 144.095 104.976 143.49 104.999 142.88C105.228 136.864 105.487 130.846 105.636 124.826C105.666 123.662 105.689 122.764 106.956 122.26C107.549 122.019 108.074 121.455 108.475 120.921C110.412 118.35 109.424 114.255 106.697 113.391C102.79 112.151 98.0207 115.236 97.4959 119.349C97.175 121.849 98.3002 123.3 100.796 123.575C101.614 123.664 102.439 123.69 103.291 123.747C103.37 124.072 103.424 124.403 103.452 124.737C103.42 129.162 103.505 133.594 103.285 138.01C103.114 140.671 102.713 143.311 102.086 145.903C101.426 148.799 99.7669 151.173 97.4386 153.052C96.9069 153.479 96.1988 153.708 95.7336 154.185C95.4311 154.492 95.195 155.197 95.3509 155.521C95.5067 155.844 96.2217 156.105 96.6319 156.036C97.1957 155.942 97.7365 155.56 98.2361 155.216C100.594 153.566 102.292 151.361 103.603 148.35Z" fill="#FAFAF9"/>
<path d="M135.572 118.588C129.485 118.535 124.262 116.297 119.933 112.091C115.249 107.549 114.314 102.237 117.328 96.4714C120.305 90.6436 125.191 86.0139 131.172 83.3563C134.559 81.8209 137.863 81.7338 141.31 83.3082C145.364 85.1598 148.723 87.7036 151.263 91.416C157.356 100.328 153.575 111.697 144.388 116.494C141.668 117.912 138.638 118.631 135.572 118.588ZM133.427 91.4275C133.007 91.7802 132.613 92.1632 132.249 92.5733C129.863 95.6877 129.76 101.467 132.056 104.621C132.274 104.918 132.973 105.255 133.133 105.141C134.437 104.162 136.211 103.658 136.85 101.971C138.143 98.5431 138.248 94.111 133.424 91.4275H133.427Z" fill="#FAFAF9"/>
<path d="M91.5719 100.452C91.6658 106.529 89.2802 110.838 85.1552 114.266C81.0303 117.694 76.2178 118.987 70.8851 118.43C65.3485 117.855 60.7193 115.494 56.8556 111.528C55.8829 110.556 55.199 109.333 54.8802 107.996C54.58 106.738 54.2706 105.475 53.9131 104.238C52.985 101.011 53.7115 98.1099 55.4187 95.3003C58.7233 89.8668 63.1554 85.7372 69.0243 83.2141C72.0195 81.9262 74.962 81.72 78.0901 83.0377C82.8017 85.02 86.7479 87.8226 89.2962 92.3303C90.7904 95.007 91.9958 97.7959 91.5719 100.452ZM77.3842 98.0893C77.3842 95.5226 76.4515 92.5893 75.2026 91.2647C74.1484 90.1349 73.2547 89.8783 71.9713 90.6758C71.1738 91.1708 70.3511 91.9018 69.9684 92.7382C69.2076 94.3814 68.692 96.1482 68.1718 97.8945C67.7272 99.3795 67.6355 100.874 68.4674 102.317C68.9441 103.147 68.9853 104.522 69.6407 104.87C70.2961 105.219 71.4741 104.598 72.3907 104.373C75.929 103.507 77.3636 101.689 77.3751 98.0893H77.3842Z" fill="#FAFAF9"/>
<path d="M150.222 117.456L154.285 113.641C153.252 115.458 152.181 116.931 150.176 117.415L150.222 117.456Z" fill="#27B2C7"/>
<path d="M88.3796 114.507L90.4421 111.858C90.2909 113.407 90.2909 113.407 88.3796 114.507Z" fill="#FAFAF9"/>
<path d="M150.177 117.415C150.088 117.528 149.998 117.645 149.906 117.755C149.906 117.721 149.879 117.661 149.892 117.652C150 117.583 150.122 117.523 150.223 117.459L150.177 117.415Z" fill="#27B2C7"/>
<path d="M103.603 148.35C102.292 151.361 100.594 153.566 98.2291 155.209C97.7364 155.553 97.1956 155.935 96.6249 156.029C96.2147 156.098 95.4975 155.835 95.3439 155.514C95.1904 155.193 95.4241 154.485 95.7266 154.178C96.1849 153.701 96.8999 153.472 97.4316 153.046C99.7668 151.173 101.426 148.792 102.086 145.903C102.71 143.31 103.108 140.669 103.275 138.008C103.504 133.592 103.411 129.16 103.443 124.735C103.414 124.401 103.361 124.07 103.282 123.745C102.43 123.687 101.605 123.662 100.787 123.573C98.291 123.298 97.1658 121.847 97.4866 119.347C98.0114 115.24 102.78 112.156 106.688 113.389C109.415 114.252 110.402 118.348 108.466 120.919C108.065 121.453 107.549 122.017 106.947 122.257C105.679 122.768 105.656 123.66 105.627 124.824C105.478 130.844 105.226 136.862 104.989 142.878C104.966 143.488 104.859 144.093 104.671 144.674C104.405 145.481 104.405 146.139 105.129 146.714C105.412 146.968 105.637 147.281 105.787 147.63C107.584 151.309 110.357 153.864 114.298 155.09C115.045 155.319 115.552 155.777 115.311 156.598C115.018 157.597 114.266 157.487 113.459 157.216C109.522 155.903 106.61 153.339 104.442 149.862C104.213 149.48 104.006 149.074 103.603 148.35ZM101.169 118.421C100.253 119.498 100.383 120.105 101.706 120.628L101.169 118.421Z" fill="#070707"/>
<path d="M133.424 91.4275C138.237 94.1179 138.143 98.5431 136.848 101.969C136.209 103.656 134.435 104.16 133.131 105.138C132.977 105.253 132.272 104.909 132.054 104.618C129.762 101.465 129.861 95.6808 132.246 92.571C132.611 92.1617 133.004 91.7795 133.424 91.4275Z" fill="#070707"/>
<path d="M77.3751 98.0894C77.3751 101.69 75.9291 103.516 72.3908 104.362C71.4535 104.591 70.2802 105.205 69.6408 104.859C69.0014 104.513 68.9533 103.136 68.4675 102.306C67.6356 100.851 67.7273 99.3682 68.1718 97.8832C68.692 96.1369 69.2077 94.3701 69.9685 92.7269C70.3512 91.902 71.1739 91.1709 71.9714 90.6645C73.2547 89.867 74.1485 90.1236 75.2026 91.2534C76.447 92.6009 77.3774 95.5228 77.3751 98.0894ZM75.1774 96.7511L74.7947 96.7786V99.4277H74.9528L75.1774 96.7511Z" fill="#070707"/>
<path d="M101.17 118.421L101.706 120.628C100.384 120.106 100.262 119.498 101.17 118.421Z" fill="#FAFAF9"/>
<path d="M75.1776 96.7512L74.9484 99.4233H74.7903V96.7741L75.1776 96.7512Z" fill="#27B2C7"/>
</svg>
