<svg width="206" height="206" viewBox="0 0 206 206" fill="none" xmlns="http://www.w3.org/2000/svg">
<circle cx="103" cy="103" r="103" fill="#FFB84C"/>
<path d="M47.6649 41C51.5001 42.9291 54.7397 44.4962 57.9243 46.1733C63.9865 49.3808 70.0579 52.5425 76.0422 55.8691C79.6713 57.8899 83.4332 58.6184 87.4747 57.7936C98.8567 55.4567 110.225 55.9883 121.566 58.0136C123.966 58.4873 126.456 58.1115 128.609 56.9505C137.797 52.1698 146.998 47.4211 156.212 42.7046C157.004 42.2968 157.815 41.9256 159.08 41.3299C159.227 42.6175 159.419 43.566 159.424 44.5374C159.52 54.6182 159.621 64.6531 159.63 74.711C159.63 78.5004 160.771 81.7812 162.787 85.0025C173.047 101.388 173.908 118.09 164.162 135.076C157.967 145.877 149.137 153.639 137.736 158.633C124.783 164.306 111.394 167.083 97.2255 165.314C97.0739 165.29 96.9207 165.278 96.7673 165.277C81.9165 165.543 68.8756 159.893 57.4431 151.343C40.4112 138.605 32.3696 120.024 37.5612 99.1385C38.6973 94.8764 40.5138 90.8256 42.9406 87.1424C45.7434 82.9585 47.2233 78.0285 47.1883 72.9927C47.1608 64.1537 47.312 55.3147 47.4128 46.4757C47.4357 44.8353 47.5595 43.2315 47.6649 41ZM46.8768 96.0684C46.8493 100.953 49.3511 104.729 51.3352 108.578C61.9292 129.152 80.9955 129.628 98.1236 121.829C101.203 120.427 101.473 119.584 100.14 116.372C98.4536 112.321 96.7398 108.188 94.3387 104.55C90.3843 98.5474 85.8251 92.7968 78.2416 91.2251C73.9711 90.3361 69.4805 89.7221 65.1595 90.0154C58.6575 90.4553 52.2975 92.0315 46.8768 96.0684ZM137.672 89.7038C136.091 89.8825 133.933 89.9054 131.89 90.4003C117.607 93.8644 110.954 104.454 106.889 117.385C106.184 119.625 106.986 121.179 109.18 122.127C116.26 125.165 123.596 127.131 131.331 126.251C137.746 125.513 143.565 123.47 148.381 118.539C153.421 113.366 156.464 107.189 159.149 100.751C160.941 96.4579 160.34 95.1978 155.978 93.3787C150.324 91.0051 144.316 90.1254 137.672 89.7038Z" fill="black"/>
<path d="M46.8767 96.0685C52.2974 92.0316 58.6574 90.4553 65.1595 90.0154C69.4804 89.7222 73.971 90.3362 78.2416 91.2251C85.825 92.7968 90.3842 98.5566 94.3386 104.55C96.7397 108.188 98.4627 112.34 100.14 116.372C101.473 119.58 101.203 120.427 98.1235 121.829C80.9954 129.619 61.9245 129.161 51.3351 108.578C49.351 104.729 46.8492 100.939 46.8767 96.0685ZM79.5382 119.075C83.2498 117.944 87.3646 118.37 91.0349 115.909C89.9352 111.52 88.0244 107.79 84.9315 104.825L79.5382 119.075ZM63.1342 111.538C64.4401 106.827 65.6222 102.58 66.9602 97.7914L55.963 99.4043C57.8234 104.316 59.2073 108.624 63.1342 111.538Z" fill="white"/>
<path d="M137.672 89.704C144.316 90.1255 150.323 91.0053 156.001 93.3697C160.363 95.2026 160.963 96.4489 159.172 100.742C156.486 107.18 153.453 113.357 148.403 118.53C143.588 123.461 137.768 125.504 131.353 126.242C123.619 127.136 116.283 125.17 109.203 122.118C107.004 121.17 106.202 119.616 106.912 117.376C110.976 104.445 117.63 93.8554 131.912 90.3913C133.933 89.9056 136.091 89.8827 137.672 89.704ZM115.907 115.767C119.389 117.44 122.982 118.517 127.161 117.971C126.098 115.625 124.97 113.632 124.283 111.501C123.596 109.371 123.321 107.034 122.803 104.472C118.065 109.508 117.039 111.203 115.907 115.767ZM143.4 112.056C147.982 107.991 150.067 104.119 150.227 99.5098L139.294 97.2187C140.724 100.211 142.043 102.204 142.616 104.385C143.189 106.566 143.143 109.059 143.4 112.056Z" fill="white"/>
<path d="M79.5383 119.076L84.9315 104.825C88.0245 107.79 89.9353 111.52 91.035 115.909C87.3647 118.352 83.2499 117.944 79.5383 119.076Z" fill="black"/>
<path d="M63.1342 111.538C59.2073 108.624 57.8235 104.316 55.9814 99.3815L66.9786 97.7686C65.6223 102.58 64.4402 106.827 63.1342 111.538Z" fill="black"/>
<path d="M115.907 115.767C117.03 111.185 118.056 109.508 122.803 104.472C123.321 107.033 123.587 109.338 124.283 111.501C124.98 113.664 126.116 115.625 127.161 117.971C122.991 118.521 119.399 117.435 115.907 115.767Z" fill="black"/>
<path d="M143.4 112.056C143.13 109.059 143.221 106.621 142.617 104.371C142.012 102.121 140.724 100.197 139.294 97.2048L150.227 99.4959C150.081 104.119 147.982 107.991 143.4 112.056Z" fill="black"/>
</svg>
