<svg width="206" height="206" viewBox="0 0 206 206" fill="none" xmlns="http://www.w3.org/2000/svg">
<circle cx="103" cy="103" r="103" fill="#27B2C7"/>
<path d="M85.1985 55.3288C92.7799 56.6839 99.8435 55.7998 106.899 55.6145C108.781 55.5681 109.627 54.4833 109.763 52.6727C109.917 50.6266 110.064 48.5766 110.365 46.5498C110.752 43.9554 111.424 41.4345 114.345 40.4963C117.267 39.5582 120.076 39.8902 122.186 42.1873C125.219 45.4881 128.415 48.7503 130.826 52.4912C137.851 63.3859 141.881 75.4001 142.032 88.3949C142.233 105.984 142.066 123.577 141.893 141.169C141.842 145.929 140.965 150.612 138.102 154.681C137.642 155.338 137.572 156.264 137.178 157.538C138.867 157.295 140.208 157.372 141.309 156.897C146.665 154.581 151.665 151.747 154.88 146.563C156.711 143.613 157.333 140.355 157.368 137.008C157.433 133.017 156.61 129.061 154.961 125.426C153.315 121.805 151.661 118.187 149.876 114.635C145.359 105.64 146.981 97.4209 153.129 89.9275C156.924 85.2948 162.175 83.5537 167.991 84.3682C171.507 84.8624 174.907 86.2098 178.331 87.2598C179.03 87.476 179.877 87.9509 180.186 88.5454C180.676 89.4604 181.144 90.661 180.958 91.603C180.68 92.9928 179.363 93.5603 177.941 93.3982C177.181 93.2823 176.44 93.0709 175.734 92.7689C174.896 92.4446 174.104 91.9968 173.281 91.6455C164.239 87.7077 156.854 91.1822 154.107 100.621C153.077 103.974 153.297 107.586 154.725 110.79C156.271 114.311 157.986 117.762 159.749 121.187C162.913 127.364 163.698 133.877 162.778 140.637C161.143 152.713 153.396 159.206 142.341 162.576C136.398 164.387 130.331 165.051 124.098 164.997C107.869 164.858 91.6593 164.808 75.4456 164.997C62.0874 165.163 52.3885 155.11 51.8746 142.567C51.5191 134.101 51.3144 125.627 51.183 117.156C51.0594 109.092 50.8622 101.019 51.1443 92.962C51.6003 79.9865 54.3669 67.4434 60.7543 56.0584C63.4785 51.2057 67.4585 47.0323 71.0096 42.666C72.9416 40.2724 75.6465 39.4849 78.6721 40.3265C81.5934 41.1411 83.0463 43.3262 83.5911 46.1753C83.9002 47.8122 84.0741 49.4722 84.3639 51.113C84.5764 52.4758 84.8894 53.827 85.1985 55.3288ZM77.3158 45.5769C66.4964 53.7807 56.956 74.2882 59.2937 83.6849C60.6462 83.6849 62.0295 83.6502 63.4128 83.6849C64.7962 83.7197 66.2491 83.7969 67.6633 83.9822C69.9084 84.2795 71.0135 85.3566 70.9401 87.0128C70.8666 88.7307 69.9083 89.4449 67.3658 89.4835C64.2977 89.5376 61.2258 89.4835 57.9413 89.4835C56.7473 92.9581 56.9212 96.1161 57.6244 99.9419C58.973 99.2432 59.9428 98.7837 60.8702 98.2548C62.9839 97.0503 65.0551 95.7648 67.188 94.5989C68.3743 93.9503 69.6611 94.263 70.1827 95.4096C70.6086 96.4091 70.6349 97.5338 70.2561 98.5521C69.8195 99.5211 68.7645 100.305 67.8217 100.938C65.1671 102.733 62.3695 104.32 59.7651 106.177C58.7583 106.904 57.9871 107.911 57.5472 109.072C57.0951 110.366 57.0873 111.86 57.1182 113.261C57.2959 120.832 57.4582 128.406 57.7983 135.969C57.9722 139.803 58.1306 143.69 58.9768 147.424C60.194 152.805 63.8534 156.411 69.1433 157.978C71.9646 158.831 74.8904 159.29 77.8375 159.341C87.4591 159.426 97.0807 159.233 106.706 159.129C111.32 159.079 115.957 159.225 120.547 158.866C128.256 158.264 133.971 153.075 135.393 145.52C136.032 142.119 136.393 138.672 136.475 135.212C136.649 127.642 136.367 120.056 136.672 112.489C136.815 108.945 135.837 106.771 132.568 105.181C129.821 103.845 127.391 101.845 124.887 100.046C123.051 98.7297 122.418 96.7453 123.225 95.4134C123.998 94.1549 125.544 93.9657 127.723 95.0969C129.199 95.869 130.513 96.9345 131.973 97.7337C133.249 98.4324 134.628 98.942 136.054 99.5752C137.024 95.3285 136.873 92.9272 135.582 89.8773C134.578 89.8773 133.562 89.9198 132.553 89.8773C130.126 89.7499 127.7 89.638 125.285 89.387C123.905 89.2403 122.862 88.5377 122.839 86.9278C122.819 85.3836 123.843 84.5729 125.091 84.1443C126.042 83.82 127.205 83.5228 128.113 83.7583C130.748 84.4956 133.04 83.6888 135.362 82.8433C134.802 70.6091 124.929 49.4877 116.247 46.4378C116.03 48.7735 115.93 51.0203 115.601 53.2363C114.693 59.4133 111.899 62.0269 105.62 62.1891C99.7005 62.3396 93.773 62.3435 87.8455 62.1312C81.5663 61.9034 78.2432 58.3709 77.907 52.1361C77.8143 50.144 77.567 48.121 77.3158 45.5769ZM61.0866 154.863L60.2056 154.349C60.0549 154.643 59.7612 154.956 59.7921 155.23C59.823 155.504 60.2249 155.639 60.4645 155.84C60.6461 155.562 60.8277 155.28 61.0866 154.863Z" fill="black"/>
<path d="M77.3393 46C77.5761 48.5257 77.8246 50.534 77.9372 52.55C78.275 58.7398 81.6141 62.2466 87.9236 62.4728C93.8642 62.6836 99.8203 62.6797 105.784 62.5303C112.094 62.3693 114.901 59.7899 115.813 53.6423C116.143 51.4424 116.244 49.2118 116.462 46.893C125.171 49.9208 135.099 70.8893 135.67 83.035C133.34 83.8743 131.034 84.6754 128.386 83.9433C127.473 83.6942 126.304 83.9893 125.349 84.3266C124.095 84.752 123.066 85.5492 123.086 87.0899C123.109 88.6882 124.157 89.3895 125.543 89.5313C127.97 89.7805 130.408 89.8916 132.847 90.0181C133.86 90.0718 134.881 90.0181 135.891 90.0181C137.188 93.0459 137.339 95.4145 136.365 99.6457C134.932 99.0172 133.546 98.4959 132.264 97.8176C130.793 97.0242 129.473 95.9587 127.993 95.1998C125.819 94.0769 124.243 94.2647 123.474 95.5141C122.662 96.8287 123.299 98.7987 125.144 100.113C127.66 101.899 130.102 103.885 132.862 105.211C136.147 106.79 137.133 108.948 136.986 112.466C136.679 119.978 136.963 127.509 136.788 135.025C136.706 138.459 136.342 141.882 135.701 145.258C134.272 152.77 128.529 157.906 120.783 158.508C116.17 158.864 111.511 158.719 106.875 158.768C97.2034 158.872 87.5354 159.063 77.8673 158.979C74.906 158.928 71.9661 158.473 69.1312 157.626C63.8157 156.07 60.1387 152.49 58.9157 147.148C58.0654 143.457 57.9062 139.582 57.7314 135.776C57.3897 128.268 57.2267 120.748 57.0481 113.233C57.017 111.841 57.0248 110.358 57.4791 109.074C57.9212 107.921 58.696 106.922 59.7078 106.2C62.3247 104.356 65.1436 102.781 67.8032 100.999C68.7506 100.37 69.8106 99.5921 70.2494 98.6301C70.6299 97.6191 70.6036 96.5026 70.1756 95.5103C69.6515 94.3605 68.3585 94.0616 67.1665 94.7054C65.0232 95.8552 62.942 97.1392 60.8182 98.335C59.8863 98.86 58.9118 99.3161 57.5567 100.01C56.8501 96.2117 56.6754 93.0612 57.8751 89.6272C61.1755 89.6272 64.2622 89.6655 67.3451 89.6272C69.8999 89.5888 70.8628 88.8606 70.9366 87.1743C71.0104 85.53 69.8999 84.4607 67.6441 84.1656C66.2385 83.9817 64.8097 83.9203 63.3731 83.8705C61.9364 83.8207 60.5931 83.8705 59.2341 83.8705C56.8967 74.5035 66.487 54.1444 77.3393 46ZM101.315 90.6658C102.569 88.577 103.917 86.7028 104.876 84.6485C105.908 82.4294 104.922 80.6587 102.515 80.6127C98.6672 80.5399 94.8116 80.8504 90.9599 81.0573C89.2476 81.1493 88.7351 82.2953 89.1816 83.7402C89.6741 85.1806 90.2817 86.5801 90.9987 87.9255C92.5751 91.0529 92.5519 91.6355 89.8068 93.6744C88.9448 94.3183 87.78 94.6211 86.7006 94.9277C85.3455 95.311 83.8545 95.3608 82.6043 95.9357C81.7967 96.319 80.8842 97.3461 80.8221 98.1433C80.7599 98.9405 81.5986 99.9025 82.282 100.546C82.8715 101.047 83.6246 101.319 84.4019 101.313C88.0595 101.198 91.55 100.255 94.4039 97.9709C96.9082 95.9664 96.8577 95.7019 99.3388 97.7486C102.266 100.159 105.839 100.704 109.341 101.432C111.115 101.815 112.296 100.704 112.835 99.1015C113.375 97.4994 112.447 96.4186 111.026 95.7824C110.097 95.3479 109.098 95.0756 108.075 94.9776C104.949 94.7591 102.965 92.9654 101.315 90.6658ZM110.579 70.5788C108.731 70.6133 106.817 72.4147 106.794 74.1471C106.77 75.8794 108.23 77.1404 110.401 77.2132C112.237 77.263 113.697 75.9867 113.701 74.3272C113.709 72.5527 112.02 70.5367 110.579 70.5635V70.5788ZM83.4934 70.6478C81.9792 70.5827 80.7755 71.8283 80.6435 73.6181C80.4726 75.7913 81.6414 77.24 83.5788 77.2515C85.3688 77.2515 87.2674 75.5613 87.2091 73.9937C87.1587 72.5335 85.1242 70.6977 83.4934 70.6325V70.6478Z" fill="white"/>
<path d="M101.378 90.5834C103.027 93.0318 104.993 94.9074 108.11 95.1293C109.127 95.2324 110.12 95.519 111.045 95.9763C112.454 96.6257 113.385 97.743 112.844 99.4694C112.304 101.196 111.137 102.313 109.369 101.922C105.893 101.155 102.332 100.583 99.4204 98.0455C96.9527 95.8916 97.0029 96.1699 94.512 98.2795C91.6735 100.7 88.2017 101.676 84.5639 101.797C83.7907 101.803 83.0417 101.516 82.4553 100.99C81.7756 100.312 80.9415 99.2758 81.0032 98.461C81.065 97.6462 81.9726 96.5329 82.7759 96.1377C84.0194 95.5326 85.5023 95.4923 86.85 95.0768C87.9121 94.7541 89.0706 94.4355 89.9395 93.7578C92.6428 91.6079 92.693 90.9948 91.1251 87.7075C90.412 86.2915 89.8077 84.8187 89.3178 83.3028C88.8737 81.7942 89.3835 80.5882 91.0866 80.4793C94.9175 80.2615 98.7524 79.9348 102.579 80.0114C104.974 80.0598 105.955 81.9233 104.927 84.2588C103.966 86.3966 102.633 88.369 101.378 90.5834Z" fill="black"/>
<path d="M110.402 70.0003C112.071 69.9719 114.027 72.1034 114 73.9472C114 75.7018 112.305 77.0512 110.178 76.9985C107.664 76.9377 105.973 75.6288 106 73.7567C106.027 71.8846 108.262 70.0368 110.402 70.0003Z" fill="black"/>
<path d="M83.6124 70.0026C85.0986 70.0716 86.9528 72.0332 86.9988 73.548C87.0519 75.209 85.3216 77.0081 83.6903 77C81.921 77 80.8594 75.4527 81.0151 73.15C81.1425 71.2534 82.2501 69.9335 83.6124 70.0026Z" fill="black"/>
</svg>
