<svg width="206" height="206" viewBox="0 0 206 206" fill="none" xmlns="http://www.w3.org/2000/svg">
<path d="M206 103C206 159.885 159.885 206 103 206C46.1147 206 0 159.885 0 103C0 46.1147 46.1147 0 103 0C159.885 0 206 46.1147 206 103Z" fill="#FFB84C"/>
<path d="M49.5458 44C52.2964 45.1846 54.4343 45.944 56.4245 46.9898C63.1902 50.5436 69.895 54.2059 76.6433 57.8162C80.3499 59.7992 84.1478 60.2462 88.3541 59.3783C97.9138 57.3996 107.574 57.174 117.146 59.3393C121.492 60.3243 125.403 59.6083 129.235 57.5689C136.605 53.6433 143.992 49.7452 151.396 45.8746C152.622 45.2367 153.973 44.8418 155.69 44.1692C155.899 45.4238 156.044 46.6882 156.124 47.9574C156.22 57.6253 156.389 67.2931 156.276 76.961C156.237 80.172 157.21 82.7149 158.927 85.3705C165.68 95.8237 168.921 107.184 165.814 119.546C162.199 133.818 153.452 144.419 140.907 151.952C126.932 160.34 111.671 162.974 95.5935 161.694C82.8182 160.678 70.8249 156.994 60.5742 149.314C43.6708 136.665 34.802 119.551 40.955 96.7437C41.7704 93.8353 43.0341 91.0714 44.7007 88.5511C48.3117 83.0403 50.076 77.2257 49.7588 70.5866C49.4111 63.3835 49.585 56.1586 49.5328 48.9424C49.5372 47.5408 49.5458 46.1393 49.5458 44ZM148.546 55.0044C140.92 58.9097 134.041 62.2032 127.401 65.9263C124.764 67.406 122.487 67.6056 119.619 66.9417C115.123 65.9221 110.567 65.1873 105.979 64.7416C98.7047 63.9996 91.6391 65.4967 84.5735 67.0762C83.1265 67.4016 81.3015 67.5405 80.0457 66.9417C75.3658 64.7156 70.8945 62.0513 66.2537 59.7341C63.1077 58.1633 60.2572 55.8288 56.2942 55.4383C56.2942 62.7109 56.1725 69.7578 56.3419 76.7874C56.4375 80.6711 55.7248 83.9863 53.3566 87.2971C50.7103 90.9985 48.0814 95.1078 46.9472 99.421C41.8241 118.913 50.063 132.733 63.9985 143.608C72.8934 150.55 83.5525 153.84 94.7808 155.263C108.065 156.946 120.666 154.508 132.585 148.888C140.608 145.158 147.542 139.44 152.726 132.278C162.833 118.371 162.364 101.226 152.587 88.0174C150.469 85.2644 149.355 81.8725 149.428 78.4016C149.48 72.4872 149.393 66.5728 149.267 60.6628C149.219 58.9878 148.846 57.3259 148.546 55.0044Z" fill="black"/>
<path d="M147.615 54C147.91 56.3499 148.278 58.0322 148.313 59.7102C148.437 65.6926 148.522 71.6795 148.471 77.6664C148.399 81.1798 149.497 84.6133 151.583 87.4C161.216 100.771 161.678 118.125 151.72 132.203C146.613 139.453 139.782 145.241 131.877 149.017C120.147 154.705 107.732 157.174 94.6314 155.47C83.5561 154.029 73.0672 150.699 64.3037 143.671C50.5741 132.664 42.47 118.674 47.5046 98.9434C48.622 94.5509 51.2121 90.4176 53.8193 86.6709C56.1525 83.3195 56.8545 79.9637 56.7603 76.0324C56.5933 68.9123 56.7133 61.7834 56.7133 54.4217C60.6177 54.8038 63.4261 57.1801 66.5256 58.7702C71.0979 61.1157 75.5161 63.8127 80.114 66.066C81.3513 66.6722 83.1493 66.5316 84.575 66.2022C91.5275 64.6033 98.4972 63.0879 105.664 63.839C110.185 64.2901 114.673 65.0339 119.102 66.066C121.928 66.7381 124.171 66.536 126.77 65.0382C133.324 61.287 140.101 57.9488 147.615 54ZM111.127 135.51L111.743 134.72C109.71 132.55 107.655 130.402 105.647 128.201C103.151 125.46 103.249 124.806 105.762 122.144C107.047 120.761 109.132 119.882 109.243 117.088C104.713 115.235 100.291 115.815 95.3163 116.926C95.9327 118.011 96.1725 118.683 96.6006 119.157C97.7394 120.453 98.9938 121.643 100.133 122.939C101.46 124.459 101.627 125.974 100.047 127.516C98.209 129.317 96.4208 131.171 94.6827 133.077C94.109 133.709 93.7751 134.57 92.8975 136.073C97.7223 134.86 99.7173 131.289 102.539 128.794C105.531 131.109 107.175 134.97 111.127 135.51ZM127.686 98.1747C124.128 98.1351 121.196 101.429 121.239 105.409C121.277 108.8 124.081 111.712 127.523 111.936C130.696 112.143 133.945 108.712 133.979 105.102C134.022 101.377 131.145 98.2142 127.682 98.1703L127.686 98.1747ZM83.9372 105.33C83.9372 101.601 80.7946 98.3021 77.2199 98.3021C74.2531 98.3021 70.8752 101.671 70.7982 104.702C70.7083 108.501 73.7095 111.936 77.2414 112.068C80.1654 112.156 83.9156 108.391 83.9328 105.326L83.9372 105.33ZM78.958 118.982C78.3287 118.257 78.0378 117.585 77.6225 117.488C73.6268 116.56 69.618 115.7 65.5966 114.91C65.1685 114.826 64.6591 115.283 64.1068 115.529C65.7508 117.383 71.8556 119.544 76.5777 119.948C77.2413 120.001 77.9649 119.399 78.9539 118.977L78.958 118.982ZM127.763 125.131C127.836 125.469 127.909 125.812 127.977 126.15C130.816 127.147 138.885 127.34 142.392 126.471C142.285 126.071 142.199 125.346 142.066 125.333C138.445 125.056 134.818 124.793 131.188 124.661C130.058 124.626 128.91 124.969 127.767 125.135L127.763 125.131ZM140.829 114.651C135.983 115.288 131.543 116.052 127.271 117.668C126.975 117.782 127.104 119.074 126.988 120.339C131.762 119.021 136.051 117.848 140.32 116.605C140.521 116.557 140.534 115.854 140.833 114.655L140.829 114.651ZM63.0022 125.816C66.5042 127.472 74.8867 127.345 77.344 125.816C75.4389 124.301 67.292 124.182 63.0066 125.821L63.0022 125.816ZM126.671 131.566C129.24 134.135 133.633 135.932 136.518 135.778C136.193 135.089 136.056 134.166 135.628 133.991C132.96 132.941 130.392 131.373 126.676 131.57L126.671 131.566ZM78.2475 131.799C74.4416 131.395 70.3145 133.231 69.0002 136.046C72.5279 135.335 75.5931 134.597 78.2517 131.803L78.2475 131.799Z" fill="white"/>
<path d="M112.353 134.471C108.373 133.962 106.716 130.336 103.72 128.148C100.876 130.497 98.8644 133.859 94 135C94.8632 133.586 95.2215 132.775 95.7998 132.18C97.5465 130.385 99.3493 128.64 101.208 126.945C102.801 125.494 102.632 124.05 101.294 122.636C100.146 121.396 98.8816 120.296 97.7335 119.076C97.3019 118.613 97.0515 117.997 96.4386 116.975C101.454 115.929 105.913 115.383 110.479 117.128C110.367 119.758 108.282 120.585 106.97 121.888C104.437 124.394 104.337 125.01 106.854 127.59C108.878 129.658 110.95 131.684 113 133.726L112.353 134.471Z" fill="black"/>
<path d="M128.085 97.0004C131.89 97.0482 135.051 100.493 134.999 104.546C134.952 108.479 131.391 112.202 127.906 111.991C124.143 111.747 121.043 108.575 121.001 104.881C120.953 100.546 124.176 96.9573 128.085 97.0004Z" fill="black"/>
<path d="M84.9999 104.671C84.9999 108.021 80.9861 112.112 77.8664 111.998C74.1035 111.854 70.9063 108.112 71.0021 103.972C71.0842 100.67 74.6829 97 77.8437 97C81.6521 97 85.0182 100.608 84.9999 104.671Z" fill="black"/>
<path d="M79 119.848C78.0012 120.369 77.2704 121.063 76.5958 120.995C71.8394 120.515 65.6604 117.949 64 115.747C64.5578 115.455 65.0853 114.913 65.5048 115.012C69.5636 115.954 73.6122 116.975 77.6509 118.074C78.0703 118.173 78.3644 118.987 79 119.848Z" fill="black"/>
<path d="M129 124.399C130.172 124.258 131.349 123.969 132.512 124.003C136.234 124.114 139.975 124.336 143.666 124.57C143.802 124.57 143.89 125.193 144 125.53C140.405 126.272 132.148 126.101 129.219 125.26C129.149 124.974 129.057 124.685 129 124.399Z" fill="black"/>
<path d="M143 115C142.675 116.265 142.661 117.006 142.448 117.062C137.808 118.373 133.169 119.61 128 121C128.125 119.666 128 118.303 128.306 118.183C132.937 116.478 137.748 115.672 143 115Z" fill="black"/>
<path d="M62 124.996C66.4776 123.619 74.9851 123.718 77 124.996C74.4298 126.281 65.6627 126.388 62 124.996Z" fill="black"/>
<path d="M128 132.012C131.41 131.872 133.754 132.97 136.185 133.728C136.577 133.853 136.702 134.505 137 134.994C134.374 135.102 130.356 133.831 128 132.012Z" fill="black"/>
<path d="M78 132.039C75.4125 133.986 72.4292 134.489 69 135C70.2792 133.037 74.2959 131.757 78 132.039Z" fill="black"/>
</svg>
