<svg width="35" height="36" viewBox="0 0 35 36" fill="none" xmlns="http://www.w3.org/2000/svg">
<path d="M8.80842 34.7182C8.80842 34.4535 8.7967 34.2442 8.80842 34.0349C8.87873 32.9329 8.95686 31.827 9.02717 30.7251C9.18343 28.1618 9.05842 25.6182 8.47247 23.1141C8.26543 22.2215 7.96464 21.3447 7.62869 20.4916C6.84742 18.5089 6.20287 16.4827 5.79661 14.3854C5.76145 14.2077 5.71067 14.026 5.62473 13.8641C5.58957 13.793 5.45675 13.7456 5.3669 13.7417C5.21456 13.7338 5.12081 13.8601 5.12471 13.9944C5.13643 14.2551 5.16768 14.5197 5.22237 14.7725C5.50363 16.0561 5.81614 17.3319 6.24584 18.576C6.35912 18.8999 6.43725 19.2277 6.39037 19.5792C6.26928 20.5192 6.18724 21.4632 5.95677 22.3835C5.77317 23.126 5.52316 23.8409 5.19503 24.5557C3.53091 25.006 1.87071 25.0574 0.163623 24.5676C0.12456 24.2082 0.0698708 23.8725 0.0503389 23.5367C-0.0785712 21.2144 0.034713 18.9078 0.452694 16.617C0.702702 15.2465 0.898021 13.868 1.12459 12.4896C1.26131 11.6562 1.48788 10.8505 1.85899 10.0882C2.44104 8.89545 3.3395 8.05023 4.57782 7.62367C5.59738 7.27215 6.531 6.7666 7.43728 6.1939C8.80842 5.32893 10.2225 4.54296 11.7382 3.97026C12.996 3.4963 13.7226 2.57999 14.0351 1.29241C14.0703 1.14232 14.1015 0.988286 14.1328 0.8303C16.3751 -0.113662 18.5939 -0.425683 20.8478 0.822401C20.883 0.996185 20.9103 1.17392 20.9533 1.35165C21.2502 2.54839 21.9104 3.45681 23.0706 3.90706C24.7308 4.55086 26.2816 5.40793 27.7856 6.35584C28.5864 6.85744 29.4145 7.284 30.3091 7.59207C31.7505 8.08973 32.731 9.08503 33.3053 10.503C33.6021 11.2376 33.8131 11.9999 33.9029 12.7819C34.0396 13.9589 34.274 15.1161 34.4772 16.2813C34.9342 18.9354 35.1686 21.6014 34.86 24.2951C34.8522 24.3701 34.8248 24.4452 34.7975 24.5637C33.1451 25.0771 31.4888 24.9981 29.8051 24.5755C29.2856 23.5525 29.0082 22.4624 28.8129 21.3486C28.7153 20.7799 28.6762 20.1993 28.6137 19.6227C28.5707 19.2514 28.6293 18.8959 28.7504 18.5405C29.184 17.245 29.5356 15.9219 29.7973 14.579C29.8286 14.4249 29.8598 14.2709 29.8716 14.1129C29.8833 13.9431 29.8286 13.8009 29.6489 13.7417C29.5083 13.6982 29.3481 13.7969 29.2934 13.9707C29.2622 14.0695 29.2426 14.1722 29.2192 14.2749C28.77 16.5261 28.0863 18.7024 27.2191 20.8233C26.4339 22.7429 26.0941 24.7611 25.973 26.8189C25.8714 28.5804 25.8949 30.342 26.0472 32.1035C26.1175 32.9369 26.1371 33.7781 26.18 34.6155C25.7894 34.8722 25.3636 34.8959 24.9691 34.9907C23.1213 35.433 21.2541 35.7925 19.3556 35.9307C17.9259 36.0334 16.5001 36.0255 15.0664 35.8833C13.0703 35.6819 11.1093 35.2672 9.15218 34.8485C9.05452 34.8327 8.96076 34.7813 8.80842 34.7182ZM8.56622 18.7972C8.48809 18.8841 8.41387 18.9512 8.35918 19.0342C8.33575 19.0697 8.32403 19.1448 8.34747 19.1842C8.39434 19.2751 8.44903 19.3896 8.52716 19.4252C8.90217 19.599 9.27718 19.7885 9.67172 19.8991C10.9452 20.2507 12.2343 20.2348 13.5234 19.9623C14.4453 19.7688 15.3164 19.4449 16.1055 18.9157C16.254 18.8169 16.3868 18.6826 16.4883 18.5405C16.5313 18.4812 16.5118 18.3272 16.4649 18.26C16.4141 18.1889 16.2969 18.1494 16.2071 18.1376C16.1407 18.1297 16.0586 18.181 15.9961 18.2245C14.9063 19.0065 13.6718 19.3501 12.3593 19.4726C11.1757 19.5832 10.035 19.4449 8.94514 18.9433C8.82795 18.892 8.70294 18.8525 8.56622 18.7972ZM23.2776 20.1756C24.1409 20.1322 25.0198 20.0532 25.8558 19.7253C26.0707 19.6424 26.2855 19.5358 26.4808 19.4094C26.6293 19.3185 26.6527 19.1566 26.5824 18.9907C26.5199 18.8406 26.3793 18.8011 26.1878 18.8722C25.848 19.0026 25.5199 19.1724 25.1683 19.2553C23.051 19.7688 21.0432 19.5002 19.1681 18.3588C19.0353 18.2798 18.9025 18.2008 18.7579 18.1455C18.6993 18.1257 18.5861 18.1573 18.5509 18.2047C18.4962 18.2798 18.4532 18.3983 18.4689 18.4852C18.4845 18.576 18.5548 18.6826 18.6329 18.7379C18.9103 18.9315 19.1915 19.125 19.4884 19.283C20.6642 19.9031 21.9416 20.1124 23.2776 20.1756ZM18.9806 9.33781C19.1408 9.31411 19.2462 9.30621 19.3439 9.28252C21.3361 8.80066 23.3284 8.31881 25.3206 7.83695C25.4456 7.80535 25.5745 7.76191 25.6722 7.67897C25.7386 7.62367 25.7972 7.48148 25.7699 7.41039C25.7308 7.30375 25.6253 7.19711 25.5238 7.15366C25.4456 7.11812 25.3245 7.17341 25.223 7.19711C23.1799 7.68686 21.1369 8.17662 19.0939 8.67032C19.0197 8.69007 18.9454 8.71377 18.8751 8.74537C18.7306 8.81251 18.6486 9.00604 18.7345 9.14033C18.7931 9.23117 18.9142 9.28647 18.9806 9.33781ZM17.1759 13.8364C17.1798 13.8364 17.1837 13.8364 17.1876 13.8364C17.1876 14.7844 17.1876 15.7323 17.1876 16.6802C17.1876 16.8658 17.1876 17.0475 17.1993 17.2331C17.211 17.403 17.2735 17.5373 17.4688 17.553C17.6602 17.5688 17.7852 17.4464 17.8048 17.2055C17.8204 17.0238 17.8165 16.8382 17.8165 16.6525C17.8165 15.6256 17.8204 14.5987 17.8204 13.5718C17.8204 12.6753 17.8204 11.7826 17.8126 10.8861C17.8126 10.7044 17.8048 10.5109 17.7384 10.345C17.7032 10.2541 17.5391 10.183 17.4259 10.1712C17.3595 10.1633 17.2345 10.2818 17.2149 10.3608C17.172 10.5385 17.1719 10.7241 17.1719 10.9098C17.1759 11.8893 17.1759 12.8609 17.1759 13.8364ZM15.8438 9.31411C16.1055 9.32991 16.2461 9.24302 16.2696 9.09293C16.2969 8.9152 16.2188 8.78486 16.0547 8.72167C15.961 8.68612 15.8555 8.67032 15.7539 8.64663C13.8398 8.18057 11.9296 7.71451 10.0155 7.24846C9.86313 7.21291 9.71079 7.17736 9.55844 7.15366C9.37875 7.12602 9.23812 7.21686 9.21077 7.38274C9.18343 7.55653 9.24202 7.69081 9.4139 7.75401C9.535 7.79745 9.66 7.8409 9.78501 7.86855C11.496 8.28721 13.2109 8.70192 14.9219 9.11268C15.2539 9.19562 15.586 9.25882 15.8438 9.31411ZM20.9025 25.7722C21.0119 25.7722 21.0393 25.7722 21.0666 25.7722C21.2111 25.7722 21.3205 25.7169 21.3674 25.5748C21.4182 25.4326 21.3479 25.322 21.2424 25.239C21.2033 25.2074 21.1564 25.1758 21.1096 25.16C20.1759 24.8954 19.5666 24.2398 19.0626 23.4499C18.9923 23.3393 18.9259 23.2208 18.8283 23.1418C18.7618 23.0865 18.6095 23.0549 18.5548 23.0944C18.465 23.1615 18.3946 23.2919 18.379 23.4025C18.3634 23.4933 18.4259 23.6039 18.4767 23.6947C18.9181 24.4531 19.4884 25.089 20.2619 25.5116C20.4846 25.634 20.7385 25.7051 20.9025 25.7722ZM16.6329 23.2879C16.5626 23.2168 16.5001 23.1102 16.418 23.0865C16.336 23.0628 16.1993 23.0865 16.1446 23.1457C16.0235 23.2761 15.9375 23.442 15.8321 23.592C15.3516 24.2951 14.7773 24.8836 13.9375 25.1363C13.8633 25.16 13.7695 25.1877 13.7383 25.2469C13.6797 25.3496 13.6289 25.48 13.6445 25.5906C13.6523 25.6577 13.7851 25.7604 13.8633 25.7604C14.039 25.7604 14.2305 25.7367 14.3906 25.6656C15.3672 25.2588 16.043 24.5163 16.5586 23.6118C16.6016 23.5288 16.6016 23.4143 16.6329 23.2879ZM10.3788 18.4496C10.5468 18.3825 10.7538 18.3351 10.9218 18.2245C10.996 18.1731 11.0272 17.9915 11.0155 17.8769C10.9999 17.7308 10.8632 17.6518 10.7264 17.6834C10.496 17.7387 10.2889 17.79 10.0467 17.6952C9.87486 17.6281 9.72641 17.7545 9.70297 17.9125C9.67563 18.0863 9.73422 18.2284 9.89829 18.2956C10.035 18.3588 10.1874 18.3904 10.3788 18.4496ZM24.6331 18.4496C24.8089 18.3825 25.0042 18.3272 25.18 18.2284C25.2894 18.1652 25.3597 18.0152 25.2816 17.8927C25.2191 17.8019 25.0863 17.6834 25.0003 17.6952C24.7503 17.7347 24.5159 17.7861 24.262 17.6992C24.1917 17.6755 24.0354 17.79 23.9729 17.8769C23.8831 18.0033 23.9573 18.2047 24.1018 18.2679C24.2581 18.339 24.43 18.3825 24.6331 18.4496ZM17.4923 33.4819C17.3399 33.4701 17.1837 33.4306 17.0352 33.4503C16.9571 33.4622 16.8516 33.5609 16.8282 33.6399C16.8048 33.7229 16.836 33.8571 16.8946 33.9164C17.1876 34.2047 17.8048 34.2047 18.0899 33.9124C18.1485 33.8532 18.172 33.715 18.1485 33.632C18.1251 33.553 18.0235 33.4543 17.9454 33.4424C17.797 33.4266 17.6407 33.4661 17.4923 33.4819Z" fill="#50AFCD"/>
</svg>
