<svg width="29" height="34" viewBox="0 0 29 34" fill="none" xmlns="http://www.w3.org/2000/svg">
<path d="M8.44193 0.192264C10.8178 0.192264 13.2027 0.0846757 15.5696 0.228126C17.6138 0.353646 19.6938 0.658478 21.5318 1.66263C23.3608 2.66679 24.1229 4.38819 23.9794 6.4234C23.5849 12.1256 23.1187 17.8277 22.6794 23.5299C22.6166 24.292 22.5897 25.063 22.509 25.8161C22.3746 27.0086 22.8228 27.941 23.6925 28.7389C24.9029 29.8417 26.3643 30.3617 27.8974 30.819C28.3009 30.9355 28.776 31.3031 28.9195 31.6797C29.2154 32.4059 28.6595 33.1231 27.8436 33.1321C24.4994 33.15 21.1463 33.15 17.8021 33.1321C17.0041 33.1321 16.4034 32.63 16.4124 31.8052C16.4214 30.8817 16.6276 29.9583 16.771 29.0438C16.8696 28.3982 17.1386 27.7617 17.1207 27.1341C17.0759 25.4037 17.0131 23.6554 16.78 21.943C16.5917 20.5354 17.0669 19.4236 17.7841 18.285C18.4835 17.1732 19.1559 16.0256 19.64 14.8153C19.8911 14.1787 19.7656 13.3628 19.7028 12.6366C19.6849 12.4035 19.2993 12.2063 19.0842 11.9911C18.8869 12.2421 18.5014 12.529 18.5373 12.7442C18.9138 14.9856 17.5152 16.5008 16.4034 18.1326C16.0627 18.6346 15.6772 18.5898 15.3186 18.0608C14.5117 16.8594 14.1979 15.5056 14.0903 14.089C14.0275 13.3539 14.0006 12.6007 14.0813 11.8745C14.1351 11.3455 14.3503 10.8166 14.5744 10.3235C14.7538 9.9469 14.96 9.54345 14.5206 9.34621C14.2875 9.23862 13.8841 9.48965 13.5524 9.59724C13.5165 9.60621 13.4806 9.66897 13.4627 9.72276C12.8172 11.5518 11.1675 11.8835 9.5985 12.2421C7.01639 12.8338 4.42531 13.3449 1.82527 13.8559C0.686631 14.0801 0.0679998 13.5511 0.0500685 12.3766C0.0231715 10.5386 0.050068 8.70068 0.0411023 6.85375C0.0321366 6.22615 0.319038 6.02891 0.928703 6.01098C3.29564 5.93029 5.54602 6.30685 7.61709 7.54411C8.18192 7.87584 8.81849 8.11791 9.44608 8.28826C9.67022 8.35102 9.97506 8.08205 10.244 7.96549C10.1095 7.69652 10.0468 7.27514 9.84057 7.17651C7.00742 5.83167 4.1922 4.39716 0.89284 4.78268C0.229381 4.86337 0.0231714 4.48682 0.0142057 3.92198C0.00524006 2.98059 -0.0126913 2.03022 0.0142057 1.08883C0.0411027 0.299852 0.363867 0.00398474 1.17974 0.00398474C3.60944 -0.00498092 6.03017 0.00398474 8.45986 0.00398474C8.44193 0.048813 8.44193 0.120539 8.44193 0.192264Z" fill="#FFF500"/>
</svg>
