<svg width="32" height="31" viewBox="0 0 32 31" fill="none" xmlns="http://www.w3.org/2000/svg">
<path d="M15.6529 0.927598C15.7173 1.40323 15.6779 1.85724 15.6887 2.31124C15.6958 2.57428 15.6887 2.84092 15.6958 3.10396C15.6994 3.19764 15.703 3.30574 15.7531 3.3778C15.796 3.44627 15.8998 3.51112 15.9785 3.51112C16.0573 3.51112 16.1825 3.44987 16.204 3.38501C16.2541 3.23007 16.272 3.06072 16.272 2.89497C16.2791 2.24999 16.2756 1.60141 16.2756 0.999663C16.4652 0.758246 16.7014 0.794278 16.9054 0.751039C19.1492 0.257395 21.4144 -0.0236582 23.7155 0.00156448C25.1935 0.0195807 26.6679 0.113265 28.1351 0.322253C29.291 0.488003 30.4505 0.635736 31.6064 0.794278C31.7209 0.808691 31.8354 0.837517 32 0.87355C31.9356 1.12578 31.8891 1.35638 31.8175 1.57618C31.2628 3.32376 30.5328 4.99206 29.656 6.5919C29.2158 7.38822 28.7792 8.18453 28.3749 9.00247C27.6019 10.5663 27.1796 12.2346 26.9899 13.9641C26.8969 14.8217 26.811 15.6829 26.7752 16.5477C26.743 17.2899 26.7573 18.0358 26.8038 18.7745C26.904 20.3779 27.0293 21.9814 27.1546 23.5848C27.2726 25.1414 27.4051 26.6944 27.5267 28.251C27.5589 28.6546 27.5697 29.0617 27.5947 29.5085C27.2404 29.5914 26.9219 29.6851 26.5999 29.7427C24.9823 30.0274 23.3684 30.3409 21.7401 30.5715C20.5162 30.7444 19.2744 30.8201 18.0398 30.921C17.4923 30.9678 16.9448 30.9895 16.3972 30.9967C14.1069 31.0255 11.8273 30.867 9.55849 30.521C7.88727 30.2652 6.23037 29.9373 4.57705 29.5878C4.53411 29.577 4.49832 29.541 4.41602 29.4941C4.40886 29.3608 4.38381 29.1987 4.39454 29.0365C4.45538 28.1249 4.51979 27.2169 4.59137 26.3089C4.7202 24.6081 4.85619 22.911 4.98859 21.2103C5.04585 20.468 5.07448 19.7221 5.16037 18.9835C5.32498 17.5169 5.17468 16.0576 5.05301 14.5983C4.96354 13.5462 4.78461 12.5048 4.51622 11.4815C4.19056 10.2456 3.67524 9.08895 3.07761 7.96474C2.49072 6.86575 1.89667 5.77036 1.34556 4.65335C0.815926 3.57598 0.407963 2.44817 0.07873 1.29513C0.0536797 1.20505 0.0322076 1.11497 0 0.974441C5.21762 -0.351553 10.4174 -0.22544 15.6529 0.927598ZM15.5706 9.82401C15.635 9.89607 15.6636 9.91049 15.6636 9.9285C15.6708 11.1032 15.6851 12.2814 15.6779 13.4561C15.6779 13.6398 15.6171 13.838 15.5384 14.0038C15.0481 15.0199 14.2322 15.5784 13.1121 15.6288C12.3498 15.6613 11.584 15.6144 10.8217 15.6469C10.2885 15.6685 9.91277 15.4883 9.61575 15.0451C9.18989 14.4073 8.72825 13.7948 8.28092 13.1714C8.1843 13.0345 8.08052 12.9012 7.966 12.7823C7.87654 12.6886 7.75486 12.6742 7.64035 12.7426C7.52225 12.8147 7.49363 12.9336 7.53657 13.0561C7.5652 13.1462 7.61888 13.2291 7.67256 13.3047C8.20219 14.047 8.73183 14.7857 9.26146 15.5243C9.60501 16.0072 10.0667 16.2522 10.6643 16.2414C11.4051 16.2306 12.1423 16.2342 12.883 16.2378C13.8349 16.2414 14.6544 15.9243 15.3558 15.2757C15.4382 15.2001 15.5062 15.0775 15.6851 15.1928C15.6851 16.2234 15.6636 17.2791 15.6922 18.3313C15.7101 18.9546 15.4775 19.4519 15.0731 19.8879C14.5471 20.4572 13.885 20.7779 13.1156 20.8103C12.425 20.8391 11.7307 20.8175 11.04 20.8211C10.7036 20.8247 10.4388 20.6842 10.2384 20.4248C10.1203 20.2734 10.0166 20.1149 9.90919 19.9527C9.54775 19.4158 9.19347 18.8754 8.82845 18.3385C8.73541 18.2016 8.63521 18.0646 8.52427 17.9421C8.43838 17.8448 8.30239 17.8088 8.21293 17.9133C8.14493 17.9926 8.12346 18.1187 8.1163 18.2304C8.11273 18.2916 8.16283 18.3637 8.20219 18.4214C8.72109 19.1997 9.23283 19.9816 9.76247 20.749C10.0845 21.2175 10.5498 21.4229 11.1152 21.4156C11.7128 21.4084 12.3069 21.4156 12.9045 21.412C13.9387 21.4084 14.8012 21.0157 15.5169 20.2698C15.9821 19.7834 15.9893 19.7798 16.4473 20.2734C17.1559 21.0301 18.0183 21.4193 19.0561 21.4156C19.6037 21.412 20.1548 21.394 20.7023 21.4193C21.4467 21.4517 21.9763 21.1382 22.3735 20.5184C22.7994 19.8518 23.2503 19.2033 23.6869 18.5439C23.7513 18.4466 23.8336 18.3385 23.8479 18.2268C23.8586 18.1259 23.8157 17.9926 23.7477 17.9169C23.6618 17.816 23.5223 17.834 23.4328 17.9349C23.3075 18.079 23.1966 18.2376 23.0892 18.3925C22.6598 19.0267 22.2375 19.6681 21.8081 20.3022C21.5934 20.6193 21.3107 20.8139 20.917 20.8139C20.2013 20.8139 19.4856 20.8391 18.7698 20.7995C18.0541 20.7599 17.4314 20.4644 16.9304 19.9419C16.501 19.4951 16.2469 18.9835 16.2612 18.3313C16.2863 17.3476 16.2648 16.3603 16.2648 15.3766C16.2648 15.2721 16.2147 15.1316 16.4044 15.092C17.2024 15.9459 18.2008 16.2954 19.3603 16.245C19.9794 16.2162 20.6021 16.2234 21.2212 16.2378C21.8725 16.2558 22.3664 16 22.7385 15.4595C23.2288 14.7496 23.7441 14.0578 24.2451 13.3552C24.3024 13.2759 24.3561 13.1966 24.399 13.1138C24.4706 12.9732 24.4241 12.8003 24.306 12.7354C24.1915 12.6742 24.0769 12.685 23.9767 12.7751C23.9266 12.8255 23.8801 12.8796 23.8372 12.9372C23.7227 13.0922 23.6117 13.2471 23.5008 13.402C23.0821 13.9858 22.6634 14.5695 22.2411 15.1496C22.0013 15.4811 21.6972 15.6505 21.2677 15.636C20.459 15.6108 19.6466 15.6432 18.8343 15.6216C17.9468 15.5964 17.2275 15.2037 16.6978 14.4902C16.4259 14.1227 16.2505 13.7155 16.2612 13.2255C16.2827 12.1949 16.2648 11.1608 16.2684 10.1267C16.2684 10.0186 16.2326 9.88166 16.4151 9.84203C16.4795 9.89607 16.5547 9.95733 16.6227 10.0222C17.2525 10.6347 18.0219 10.941 18.8808 10.9806C19.6896 11.0203 20.5019 10.9987 21.3142 10.9879C21.7043 10.9807 22.0765 10.8798 22.3699 10.6059C22.8602 10.1411 23.1966 9.55737 23.5688 8.99887C23.5831 8.98085 23.5902 8.94842 23.5867 8.9304C23.5509 8.82231 23.5366 8.68899 23.465 8.62053C23.372 8.53405 23.236 8.56648 23.1465 8.66737C23.0356 8.79348 22.9389 8.9304 22.8387 9.06372C22.6419 9.33397 22.4451 9.60421 22.2554 9.88166C22.0371 10.2023 21.7365 10.3789 21.3536 10.3825C20.5198 10.3897 19.686 10.3825 18.8486 10.3717C18.7054 10.3717 18.5659 10.3321 18.4227 10.3068C17.7857 10.1987 17.2561 9.88887 16.841 9.39883C16.4581 8.94842 16.2111 8.44036 16.2648 7.82061C16.2756 7.7053 16.2612 7.57198 16.2147 7.47109C16.1825 7.40263 16.068 7.33777 15.9893 7.33777C15.9105 7.33777 15.7781 7.39903 15.7567 7.46028C15.7066 7.61522 15.6851 7.78818 15.6922 7.95032C15.7244 8.57729 15.431 9.06012 15.0338 9.49251C14.5006 10.069 13.8206 10.3393 13.0548 10.3717C12.246 10.4041 11.4337 10.3861 10.6213 10.3861C10.2348 10.3861 9.93782 10.2096 9.71237 9.89607C9.4905 9.5862 9.26862 9.27271 9.03959 8.96283C8.9537 8.84753 8.87139 8.72502 8.76046 8.63854C8.69962 8.5917 8.56721 8.58449 8.5028 8.62053C8.4348 8.66016 8.37397 8.77547 8.37755 8.85113C8.3847 8.96283 8.4348 9.08174 8.49922 9.17543C8.74256 9.53215 9.00023 9.87806 9.24715 10.2312C9.60501 10.7428 10.0953 10.9879 10.7108 10.9915C11.4516 10.9951 12.1888 11.0095 12.9295 10.9843C13.8385 10.9518 14.658 10.6564 15.3344 10.015C15.4059 9.97174 15.4775 9.91049 15.5706 9.82401ZM24.6746 6.55226C25.1505 6.50902 25.8627 6.47659 26.5677 6.3721C27.3442 6.2568 28.11 6.08024 28.8293 5.73793C28.9546 5.67667 29.087 5.60821 29.1836 5.51093C29.2337 5.46048 29.2373 5.32356 29.2051 5.25149C29.1729 5.18303 29.062 5.09655 28.994 5.10736C28.8329 5.12538 28.6755 5.18663 28.5216 5.24789C27.6949 5.56858 26.8432 5.75234 25.9629 5.85684C24.9609 5.97574 23.9696 5.95412 22.9711 5.85684C21.2928 5.68748 19.7039 5.25149 18.2331 4.40473C18.1114 4.33266 17.9826 4.2606 17.8501 4.22457C17.775 4.20655 17.6283 4.24979 17.6032 4.30384C17.5639 4.40113 17.5603 4.54526 17.6068 4.63534C17.6569 4.73262 17.7714 4.80469 17.8752 4.86234C18.2295 5.05692 18.5802 5.2623 18.9488 5.42805C20.6916 6.20995 22.5417 6.4838 24.6746 6.55226ZM7.36837 6.54866C8.83203 6.50902 10.2277 6.35048 11.5804 5.95052C12.45 5.69469 13.291 5.35599 14.064 4.86955C14.1821 4.79388 14.3073 4.7074 14.3896 4.5993C14.4326 4.54165 14.4254 4.40113 14.386 4.33266C14.3503 4.26781 14.2286 4.20295 14.1606 4.21736C14.0246 4.24258 13.8994 4.31825 13.7705 4.3759C13.2087 4.63534 12.6611 4.9308 12.0886 5.1542C10.9935 5.57939 9.84836 5.77757 8.67815 5.87846C6.828 6.0406 5.0208 5.89287 3.28517 5.16862C3.22076 5.13979 3.14561 5.09655 3.08477 5.10376C2.97741 5.11817 2.85216 5.147 2.77701 5.21546C2.67681 5.30194 2.72333 5.50732 2.85932 5.58659C3.0454 5.69469 3.23865 5.78477 3.43547 5.86404C4.71304 6.37931 6.06218 6.4838 7.36837 6.54866ZM21.461 27.6709C21.529 27.7465 21.5826 27.8402 21.6578 27.8691C21.7329 27.8943 21.8761 27.8871 21.9155 27.8366C22.1051 27.5916 22.2876 27.3394 22.4415 27.0691C22.8244 26.4025 23.1071 25.6891 23.3576 24.9648C23.6439 24.1217 24.0018 23.311 24.5923 22.6299C24.6531 22.5615 24.7032 22.4714 24.7318 22.3849C24.7748 22.2588 24.7354 22.1327 24.6173 22.0786C24.5422 22.0462 24.4205 22.0462 24.3561 22.0858C24.2416 22.1651 24.1449 22.2768 24.0555 22.3885C23.5223 23.0191 23.168 23.7505 22.8996 24.5252C22.5632 25.5017 22.1839 26.4566 21.622 27.3286C21.554 27.4259 21.5182 27.5412 21.461 27.6709ZM7.397 21.985C7.32901 22.1291 7.23239 22.2444 7.23239 22.3597C7.23239 22.4606 7.32543 22.5759 7.40058 22.6624C7.91948 23.2713 8.25587 23.9848 8.52427 24.7306C8.62089 25.0009 8.71751 25.2711 8.81771 25.5414C9.06106 26.1936 9.35808 26.8205 9.72668 27.4078C9.81615 27.5484 9.91635 27.6853 10.0237 27.8114C10.1132 27.9123 10.2384 27.9231 10.3458 27.8474C10.4496 27.7754 10.4889 27.6565 10.4424 27.5304C10.4102 27.4403 10.3708 27.3538 10.3207 27.2745C9.79826 26.4674 9.44755 25.5774 9.11832 24.6766C8.93581 24.1829 8.73899 23.6893 8.4849 23.2353C8.26661 22.8425 7.96243 22.4966 7.68329 22.1399C7.62961 22.0786 7.52583 22.0534 7.397 21.985ZM15.9785 23.2425C15.7316 23.3254 15.4811 23.3902 15.2449 23.4947C15.1304 23.5416 15.0767 23.6893 15.1447 23.801C15.1984 23.8875 15.338 24.0028 15.4059 23.9848C15.7817 23.8839 16.1467 23.8659 16.5225 23.9848C16.5941 24.0064 16.7408 23.9091 16.8016 23.8298C16.8839 23.7217 16.8123 23.5271 16.6728 23.4731C16.4545 23.383 16.2255 23.3218 15.9785 23.2425ZM6.33415 4.38671C6.56676 4.32186 6.79937 4.26781 7.02125 4.18853C7.16439 4.13809 7.22881 3.95793 7.17871 3.83181C7.12861 3.7057 7.01767 3.62643 6.89957 3.66246C6.52382 3.77416 6.15522 3.74894 5.77589 3.66246C5.65064 3.63364 5.52896 3.72372 5.52896 3.86064C5.52896 3.96513 5.57907 4.12728 5.65064 4.16331C5.86178 4.2606 6.09796 4.31105 6.33415 4.38671ZM25.6086 4.3759C25.8412 4.31105 26.0702 4.2606 26.2885 4.17772C26.4388 4.12007 26.4782 3.97955 26.4388 3.82461C26.403 3.68408 26.2849 3.63364 26.1704 3.66246C25.7983 3.74534 25.4332 3.76696 25.0611 3.66606C24.9394 3.63364 24.8356 3.7057 24.7819 3.82821C24.7282 3.95072 24.7891 4.12728 24.9322 4.18133C25.1505 4.2606 25.3796 4.31105 25.6086 4.3759Z" fill="#6853EB"/>
</svg>
