<svg width="31" height="31" viewBox="0 0 31 31" fill="none" xmlns="http://www.w3.org/2000/svg">
<path d="M25.0727 22.4788C25.2541 22.3333 25.4355 22.1879 25.6834 21.9879C25.1997 21.5515 24.7705 21.1091 24.2868 20.7455C23.7971 20.3758 23.259 20.0788 22.727 19.7636C22.594 19.6849 22.5154 19.6182 22.5154 19.4424C22.5698 16.4 22.6121 13.3636 22.6605 10.3212C22.6605 10.2545 22.6726 10.1818 22.6786 10.097C22.7995 10.0788 22.9144 10.0606 23.0474 10.0364C23.0474 9.8 23.0474 9.57576 23.0474 9.33334C22.993 9.32122 22.9446 9.29697 22.9023 9.30303C21.4211 9.3697 20.1938 8.72728 19.033 7.90303C18.7852 7.72728 18.5736 7.5091 18.3257 7.33334C18.1625 7.21819 17.9811 7.12728 17.7937 7.06061C17.3765 6.9091 16.9533 6.78182 16.5422 6.62425C16.4576 6.59394 16.3487 6.49091 16.3366 6.41212C16.3125 6.12122 16.3245 5.83031 16.3245 5.50909C17.0561 5.50909 17.7574 5.50909 18.4829 5.50909C18.4829 5.24849 18.4829 5.02425 18.4829 4.75152C18.1745 4.75152 17.8662 4.75152 17.5579 4.75152C17.177 4.75152 16.7901 4.76364 16.4092 4.7394C16.3125 4.73334 16.1674 4.62425 16.1492 4.5394C16.0888 4.26667 16.0464 3.98182 16.0464 3.70304C16.0464 3.41213 16.1492 3.15758 16.4031 2.9697C17.2012 2.38788 17.9932 1.8 18.7852 1.21213C19.3293 0.812126 19.8855 0.872731 20.4659 1.13334C21.5843 1.64243 22.4005 2.50303 23.1079 3.47273C24.1901 4.95152 24.9337 6.6 25.5927 8.30303C25.9252 9.15758 26.3424 9.97576 26.7172 10.8121C28.0473 13.7758 29.2866 16.7758 30.0968 19.9333C30.4172 21.2 30.7074 22.4788 30.6106 23.7879C30.5079 25.1818 30.0968 26.4849 29.1657 27.5576C28.6518 28.1515 27.9384 28.4909 27.1948 28.6788C25.9373 29 24.6737 29.3091 23.3981 29.5091C21.6327 29.7879 19.8553 30.0182 18.102 30.3879C16.2157 30.7879 14.2992 30.8667 12.4069 30.4303C11.7358 30.2788 11.0768 30.0303 10.442 29.7636C10.1156 29.6303 9.86769 29.6303 9.54121 29.7818C7.002 31.0061 4.55347 30.8242 2.2319 29.2182C2.08076 29.1152 1.9538 28.9273 1.89334 28.7515C1.26459 26.8667 0.641873 24.9818 0.0372984 23.0909C-0.0171133 22.9273 -0.0110678 22.7091 0.0493897 22.5455C0.919977 20.2303 2.61883 18.8727 5.00086 18.3939C7.17128 17.9576 9.13615 18.4788 10.8411 19.9091C11.0587 20.0909 11.2522 20.1394 11.5242 20.0546C13.5556 19.3939 15.6414 19.097 17.7755 19.2364C20.1878 19.3939 22.4005 20.0909 24.2687 21.6849C24.5347 21.9273 24.7825 22.1939 25.0727 22.4788ZM24.3956 27.2667C21.4997 27.8909 19.1298 27.0364 17.1951 24.8424C17.0017 24.9879 16.8082 25.1273 16.6208 25.2606C18.0778 27.5152 22.6121 29.0364 24.5649 27.9273C24.5105 27.7273 24.4561 27.5152 24.3956 27.2667ZM4.42651 24.1333C4.14236 25.8061 5.65984 27.2727 7.86654 27.4182C7.89677 27.1879 7.92095 26.9576 7.95118 26.7394C6.55462 26.3939 5.19432 26.0849 5.10968 24.2727C4.89203 24.2303 4.66834 24.1818 4.42651 24.1333Z" fill="#FC0000"/>
</svg>
