<svg width="39" height="31" viewBox="0 0 39 31" fill="none" xmlns="http://www.w3.org/2000/svg">
<path d="M31.5525 9.02606L32.2526 9.25753C32.293 8.54672 32.3295 7.8952 32.3686 7.20143C32.6733 7.32757 32.9949 7.44677 33.3021 7.59499C36.151 8.97308 38.0602 11.1616 38.9684 14.2029C39.0148 14.3718 39.01 14.5508 38.9545 14.7169C38.0248 17.3382 37.0775 19.9518 36.1535 22.5762C36.052 22.8638 35.9189 22.9357 35.6357 22.9237C34.2797 22.8657 33.046 22.5106 32.064 21.5166C31.5109 20.9572 31.181 20.2747 30.9691 19.5097C33.2031 19.1186 33.8956 17.3798 34.5276 15.523L33.765 15.2997C33.7051 15.4795 33.6521 15.6441 33.5954 15.8081C33.304 16.6482 32.9445 17.4479 32.2759 18.0704C31.8344 18.4791 31.3242 18.7144 30.7055 18.6702C30.2104 18.6355 30.17 18.6608 29.9625 19.1117C29.3666 20.4213 28.8949 21.784 28.5535 23.1817C27.9423 25.6105 27.6793 28.0785 27.6995 30.5792C27.6995 30.6423 27.6901 30.7003 27.6837 30.7766H11.2771C11.2771 30.1194 11.3024 29.4705 11.2727 28.8215C11.1214 25.4976 10.4635 22.2854 9.10562 19.2347C9.05453 19.1193 9.02111 18.9824 8.93407 18.9011C8.8136 18.7932 8.64016 18.6488 8.50645 18.6658C7.51245 18.7806 6.79912 18.3221 6.29456 17.5526C5.93505 17.0064 5.69602 16.3801 5.41157 15.7866C5.34785 15.6297 5.29331 15.4692 5.24821 15.306L4.48443 15.5198C5.11513 17.3773 5.80576 19.1149 8.04225 19.5109C7.63418 21.0146 6.74173 22.0855 5.26146 22.5667C4.61309 22.7774 3.90607 22.8089 3.22553 22.9206C3.0502 22.9496 2.96505 22.8669 2.90577 22.7017C1.95087 20.022 0.994931 17.3432 0.037937 14.6652C-0.00655485 14.5381 -0.0120457 14.4006 0.0221693 14.2704C1.02373 10.8904 3.19841 8.5852 6.45539 7.27837C6.51728 7.25675 6.58048 7.23905 6.6446 7.22539C6.68055 7.8889 6.7165 8.54105 6.7556 9.25249L7.48407 9.01912C7.48407 8.47861 7.48407 7.96963 7.48407 7.46002C7.48407 7.0078 7.65752 6.64009 7.95521 6.29951C8.75558 5.37868 9.61712 4.5411 10.7606 4.05798C11.7268 3.64991 12.7089 3.55341 13.694 3.99995C13.9532 4.11726 14.1355 4.01446 14.3115 3.84038C15.0563 3.10813 15.5325 2.21694 15.8529 1.23556C15.9586 0.905913 16.047 0.570971 16.1178 0.232105C16.1525 0.0712746 16.2049 -0.000626596 16.3808 4.11194e-06C18.4613 0.00504977 20.5427 0.00504977 22.6248 4.11194e-06C22.821 4.11194e-06 22.862 0.0876727 22.8986 0.255441C23.1616 1.47208 23.6005 2.60924 24.4388 3.55783C24.5567 3.69154 24.6696 3.84606 24.8172 3.93121C24.9465 4.00437 25.1533 4.05735 25.2763 4.00689C26.6967 3.40204 27.9713 3.77857 29.1817 4.56633C30.0357 5.12261 30.7219 5.86243 31.3337 6.671C31.404 6.76101 31.4477 6.86896 31.4598 6.98257C31.4995 7.63787 31.5229 8.29444 31.5525 9.02606ZM19.8844 29.4307V12.8248H19.1187V29.4307H19.8844ZM18.4338 7.05258C18.2175 7.05258 18.0812 7.06519 17.9475 7.05258C17.6952 7.02356 17.6101 7.11565 17.5943 7.37802C17.5439 8.2156 17.4959 9.05634 17.3792 9.88635C17.1415 11.5678 16.7208 13.2013 15.8712 14.693C15.2046 15.8629 14.326 16.8109 13.0236 17.2877C12.8205 17.3615 12.6149 17.4277 12.3979 17.5015L12.572 18.2893C13.0185 18.1158 13.4398 17.9865 13.8334 17.7954C15.2802 17.0878 16.2023 15.8831 16.8816 14.4703C17.6914 12.7851 18.08 10.985 18.2742 9.13707C18.3411 8.45906 18.3789 7.77978 18.4344 7.05258H18.4338ZM20.6097 7.06582C20.6097 7.19196 20.6041 7.29729 20.6097 7.39947C20.6488 7.9753 20.6772 8.55303 20.7359 9.12698C20.9251 10.9863 21.3243 12.7952 22.1379 14.488C22.739 15.7399 23.5488 16.8216 24.7554 17.564C25.272 17.8914 25.846 18.118 26.4469 18.2319C26.4822 18.078 26.51 17.9569 26.5371 17.8352C26.5642 17.7134 26.5787 17.5974 26.6002 17.4738C24.925 17.0638 23.8402 15.9903 23.0682 14.5567C22.0919 12.7504 21.6908 10.7838 21.4965 8.76369C21.4423 8.20299 21.4164 7.63914 21.376 7.06078L20.6097 7.06582ZM16.0491 24.7256C15.5798 25.0334 15.1844 25.3734 14.7246 25.5714C14.2648 25.7695 13.7432 25.8281 13.2141 25.9555C13.2046 26.1637 13.1939 26.4077 13.1825 26.6493C14.4717 26.7609 16.1601 25.9637 16.5618 25.0687L16.0491 24.7256ZM23.0562 24.6626C22.9301 24.7483 22.8248 24.8171 22.722 24.8877C22.6192 24.9584 22.5227 25.0259 22.4249 25.0933C23.0701 26.1655 24.7774 26.771 25.8238 26.6253C25.8124 26.3894 25.8005 26.1523 25.7878 25.8924C24.7226 25.8275 23.7582 25.5702 23.0569 24.6607L23.0562 24.6626Z" fill="#FFB800"/>
</svg>
