<svg width="35" height="29" viewBox="0 0 35 29" fill="none" xmlns="http://www.w3.org/2000/svg">
<path d="M34.6809 25.3091C34.415 24.518 34.3884 23.6737 34.3086 22.8494C34.3086 22.8427 34.3086 22.8427 34.3086 22.8361C34.2887 22.7297 34.2621 22.6233 34.2288 22.5236C34.2288 22.517 34.2222 22.5103 34.2222 22.5037C33.9829 22.0516 33.6837 21.6261 33.4244 21.1873C32.9923 20.4694 32.6333 19.7381 32.3209 18.9603C31.7957 17.6639 32.0084 16.3077 31.922 14.9648C31.922 14.9582 31.922 14.9515 31.922 14.9449C31.902 14.8651 31.8821 14.7853 31.8621 14.7122C31.8621 14.7055 31.8555 14.6989 31.8555 14.6922C31.543 14.0806 31.1508 13.5155 30.7985 12.9305C30.3597 12.1992 30.0073 11.4281 29.7414 10.617C29.5287 9.97214 29.3824 9.32063 29.296 8.65583C29.2894 8.62259 29.2761 8.59599 29.2428 8.57605C29.0567 8.46303 28.8772 8.32343 28.7176 8.17717C28.219 7.71846 27.9199 6.92069 27.9199 6.24924C27.9199 5.67751 28.1193 5.11908 28.4451 4.65372C28.4517 4.64042 28.4584 4.62713 28.465 4.61383C28.4783 4.53405 28.4916 4.45428 28.5115 4.38115C28.598 3.94238 28.7841 3.50361 28.9968 3.11802C29.0899 2.95182 29.1963 2.79227 29.3093 2.64601C29.3625 2.57953 29.3159 2.47981 29.2362 2.46652C29.2229 2.46652 29.2029 2.46652 29.1896 2.47317C28.8838 2.58618 28.5581 2.65266 28.239 2.65266C28.0262 2.65266 27.8201 2.62607 27.6273 2.57953C27.6207 2.57953 27.6141 2.57953 27.6074 2.57953C27.5609 2.57953 27.5143 2.57953 27.4678 2.57289C27.4611 2.57289 27.4611 2.57289 27.4545 2.57289C27.3614 2.57953 27.2684 2.58618 27.1686 2.57953C26.9426 2.57953 26.7166 2.54629 26.4972 2.50641C26.4839 2.50641 26.4706 2.50641 26.4573 2.50641C26.1781 2.49976 25.8789 2.47317 25.6063 2.39339H25.5997C25.48 2.37345 25.367 2.34021 25.2474 2.30032C25.2341 2.29367 25.2274 2.29367 25.2141 2.29367H24.8152C24.4629 2.29367 24.1305 2.22719 23.818 2.10088C23.7914 2.08758 23.7648 2.08758 23.7383 2.10088C23.4192 2.22719 23.0868 2.29367 22.7543 2.29367C22.2425 2.29367 21.7771 2.15406 21.3782 1.90808C21.3583 1.89479 21.3383 1.88814 21.3117 1.89479C21.2253 1.90144 21.1322 1.90808 21.0458 1.91473C19.2575 2.08758 17.1567 1.96127 15.375 1.6754C14.0255 1.46267 12.6759 1.21669 11.3131 1.10367C10.635 1.04384 10.03 1.00395 9.75747 0.365743C9.73752 0.325855 9.69763 0.299263 9.65775 0.299263C9.3054 0.285966 8.97965 0.212838 8.68049 0.0865255C8.6273 0.0599334 8.56082 0.0865256 8.53423 0.146358C8.46775 0.312558 8.38797 0.465463 8.2949 0.611719C8.00239 1.07708 7.83619 1.22334 7.4506 1.5225C7.14479 1.76183 6.98524 1.8549 6.69273 1.97456C6.67278 1.98121 6.65284 1.99451 6.64619 2.01445C6.46005 2.28702 6.24731 2.533 6.00133 2.74573C5.80854 2.91194 5.60245 3.05819 5.41631 3.23104C5.40966 3.23769 5.40301 3.25098 5.39636 3.25763C5.10385 3.76288 4.91106 4.31467 4.64514 4.83321C4.31274 5.49137 3.88726 6.11628 3.51497 6.75449C2.81028 7.95114 2.09894 9.16108 1.52057 10.4242V10.4308C1.2347 11.1821 1.03526 11.9532 0.902301 12.7444V12.751C0.789284 13.8213 0.795932 14.8983 0.915597 15.9687C1.00867 16.5537 1.13498 17.1387 1.30118 17.7104C1.44744 18.2223 1.62029 18.7276 1.73995 19.2461C1.96598 20.25 2.12554 21.2871 2.47123 22.2577C2.47123 22.2643 2.47788 22.271 2.47788 22.271C2.50447 22.3242 2.53771 22.384 2.57095 22.4372C2.5776 22.4438 2.58425 22.4505 2.5909 22.4571C3.00308 22.8693 3.31553 23.5075 3.38201 24.1391C3.38201 24.1657 3.40196 24.1923 3.4219 24.2122C3.72771 24.4515 3.99363 24.744 4.21302 25.0565C4.47894 25.4421 4.66508 25.8875 4.83128 26.3329C4.85787 26.3529 4.87782 26.3728 4.89776 26.3994C5.08391 26.4592 5.2634 26.5457 5.4296 26.6454C5.43625 26.652 5.4429 26.652 5.44955 26.6587C5.92156 26.7983 6.33373 27.0642 6.65284 27.4165C6.67943 27.4431 6.71932 27.4564 6.75256 27.4498C6.88552 27.4232 7.01848 27.4099 7.14479 27.4032C7.15144 27.4032 7.15809 27.4032 7.16474 27.4032C7.59686 27.2969 8.04228 27.2371 8.49434 27.2437C8.85998 27.2437 9.21233 27.2902 9.57132 27.3567C9.67769 27.37 9.77741 27.39 9.87713 27.4099C10.2095 27.4764 10.5419 27.5429 10.8743 27.6027C12.0111 27.7356 13.1613 27.8221 14.2648 28.1412C14.2848 28.1478 14.3047 28.1478 14.3247 28.1412C14.5507 28.0814 14.7767 28.0481 15.0028 28.0481C15.7074 28.0481 16.3257 28.314 16.7977 28.7462C16.831 28.7794 16.8775 28.786 16.924 28.7661C17.303 28.5799 17.7218 28.4736 18.134 28.4736C18.3467 28.4736 18.5528 28.5002 18.7522 28.5467C18.7655 28.5467 18.7722 28.5467 18.7855 28.5467C18.8187 28.5467 18.852 28.5467 18.8918 28.5467C19.0913 28.5002 19.2907 28.4736 19.4835 28.4736C19.6697 28.4736 19.8558 28.4669 20.042 28.447C20.0486 28.447 20.0486 28.447 20.0553 28.447C20.6336 28.334 21.1921 28.1678 21.7571 28.0149C22.6679 27.7689 23.6053 27.7423 24.536 27.6559C24.5427 27.6559 24.5427 27.6559 24.5493 27.6559C25.3205 27.5229 26.0917 27.3102 26.8562 27.1373C27.7404 26.9379 28.6246 26.7451 29.5021 26.5324C30.5791 26.2797 31.6561 26.0072 32.7729 26.0005C33.471 25.9939 34.1624 26.0604 34.8604 26.067C34.9468 26.067 35 25.9806 34.9601 25.9008C34.8338 25.7147 34.7474 25.5152 34.6809 25.3091Z" fill="#1CD190"/>
<path d="M28.6511 2.60612C28.6245 2.69254 28.5979 2.77232 28.5713 2.85874C28.3852 3.46371 28.1326 3.74958 27.4678 3.68975C23.3327 3.32411 19.1777 3.09142 15.0626 2.59282C13.0682 2.34685 11.1402 1.60227 9.13917 1.07707C9.23224 0.791209 9.32531 0.531937 9.41174 0.292608C9.11258 0.259368 8.82671 0.172943 8.56744 0.0466309C8.49431 0.246072 8.40124 0.438864 8.28822 0.618361C7.99571 1.08372 7.82951 1.22998 7.44392 1.52914C7.12482 1.77512 6.96527 1.86819 6.65281 1.9945C6.46667 2.27372 6.24728 2.53299 5.99465 2.75238C5.79521 2.92522 5.58248 3.07148 5.39633 3.25098C5.10382 3.76288 4.90438 4.31466 4.63846 4.8465C4.51879 5.07918 4.39248 5.30522 4.25952 5.53125C5.19024 4.32796 6.30711 3.25763 7.59018 2.31361C7.83616 2.13411 8.30817 2.01445 8.57409 2.12081C14.6238 4.63377 21.0125 4.82656 27.4146 4.99276C27.5741 4.99941 27.7337 5.0127 27.973 5.01935C27.9597 5.27198 27.9531 5.51795 27.9531 5.77058C28.0329 5.36505 28.2057 4.97946 28.445 4.64706C28.4583 4.56064 28.4783 4.47421 28.4916 4.38779C28.578 3.94902 28.7641 3.51025 28.9769 3.12466C29.1032 2.89863 29.2561 2.69254 29.4156 2.4931C29.3359 2.48645 29.2627 2.47981 29.1896 2.47316C29.0101 2.52634 28.8306 2.57288 28.6511 2.60612Z" fill="white"/>
<path d="M34.3087 22.8427C34.2887 22.7297 34.2555 22.6233 34.2222 22.5103C33.9829 22.0582 33.6838 21.6261 33.4178 21.1873C32.9857 20.4694 32.6267 19.7381 32.3143 18.9603C31.7891 17.6639 32.0085 16.301 31.9154 14.9581C31.8954 14.8717 31.8755 14.7853 31.8489 14.6989C31.5298 14.0873 31.1442 13.5155 30.7852 12.9239C30.3464 12.1926 29.9941 11.4214 29.7282 10.6103C29.5088 9.95219 29.3625 9.28074 29.2761 8.59599C29.07 8.47633 28.8772 8.33007 28.7044 8.17052C28.372 7.86471 28.1327 7.41264 28.0063 6.94728C28.3786 11.1887 30.6523 14.8451 32.2411 18.8672C31.0644 18.9603 29.9409 19.1198 28.8174 19.1132C27.9332 19.1065 27.4014 19.3458 26.8629 20.1303C24.9815 22.8626 22.2093 24.2787 19.0448 25.0033C18.2936 25.1762 17.5424 25.3357 16.7778 25.4221C13.64 25.7745 11.7719 23.933 10.3093 21.533C8.91322 19.2395 8.23513 16.6866 7.86948 14.0474C7.84954 13.9144 7.89608 13.7283 7.8296 13.6551C7.56367 13.3826 7.26451 13.1432 6.97865 12.8906C6.8191 13.2031 6.49334 13.5421 6.53323 13.828C6.94541 16.8262 7.68999 19.7314 9.27886 22.3574C9.34534 22.4704 9.38523 22.5967 9.46501 22.7829C7.70993 23.1884 5.99474 23.3214 4.25961 23.0089C4.06682 22.9757 3.84078 22.8028 3.74106 22.63C1.40096 18.701 0.304035 14.5593 1.82643 10.0719C1.95274 9.69956 2.09235 9.34057 2.23861 8.98822C1.98598 9.46023 1.74001 9.94554 1.51397 10.4308C1.22811 11.1821 1.02202 11.9599 0.895709 12.751C0.782692 13.8213 0.789341 14.8983 0.909005 15.9686C1.00208 16.5537 1.12839 17.1387 1.29459 17.7104C1.44085 18.2223 1.6137 18.7276 1.73336 19.2461C1.95939 20.2566 2.11894 21.2937 2.47129 22.2643C2.50453 22.3308 2.53777 22.3906 2.57101 22.4505C3.00313 22.8759 3.31559 23.5341 3.37542 24.1856C3.69453 24.4316 3.97374 24.7307 4.19978 25.0631C4.4657 25.4421 4.64519 25.8808 4.81139 26.3196C4.83134 26.3462 4.84463 26.3728 4.86458 26.3927C5.06402 26.4592 5.25681 26.5456 5.42966 26.652C5.92826 26.7983 6.35373 27.0841 6.68614 27.4631C6.69278 27.4631 6.70608 27.4564 6.71273 27.4564C6.71273 27.1772 6.71938 26.8913 6.60636 26.6786C6.21413 25.9606 5.70888 25.3091 5.19033 24.5446C6.49999 24.4382 7.6501 24.4582 8.74702 24.2321C9.93037 23.9928 10.8677 24.1258 11.6589 25.1097C11.9381 25.462 12.3768 25.7412 12.7957 25.9141C14.0854 26.4526 15.3618 26.9578 16.3324 28.0614C16.5651 28.3273 16.9307 28.6531 17.303 28.5999C17.3562 28.5799 17.4094 28.5667 17.4626 28.5534C17.5756 28.5002 17.682 28.4137 17.7883 28.2741C18.2803 27.616 17.5357 27.3767 17.1767 27.0376C17.1435 27.0044 17.1634 26.9246 17.1501 26.8182C17.4759 26.765 17.8083 26.7118 18.134 26.6587C21.2586 26.1601 24.1638 25.0233 26.3244 22.7297C27.7604 21.2073 29.0634 19.9375 31.2971 20.2633C31.3902 20.2766 31.4966 20.2367 31.5963 20.2167C32.1481 20.0904 32.4605 20.2899 32.6201 20.8549C33.0256 22.3042 33.471 23.7402 33.9098 25.1762C34.0095 25.5019 34.0361 25.934 34.3685 26.047C34.4882 26.0537 34.6145 26.0537 34.7341 26.0603C34.7408 26.0603 34.7474 26.0603 34.7474 26.0603C34.8472 26.0404 34.9269 26.0138 35.0001 25.9739C34.8804 25.7678 34.774 25.5418 34.7009 25.3091C34.415 24.518 34.3884 23.6737 34.3087 22.8427Z" fill="white"/>
</svg>
